<svg xmlns="http://www.w3.org/2000/svg" viewBox="0 0 512.59 187.74"><defs><style>.cls-1{fill:#1da1f2;}.cls-2{fill:#fb0;}.cls-3{fill:#fff;}</style></defs><title>linq new logo svg</title><g id="Layer_2" data-name="Layer 2"><g id="Layer_2-2" data-name="Layer 2"><rect class="cls-1" width="187.72" height="187.72" rx="20" ry="20"/><path class="cls-2" d="M103.13,93.86a9.27,9.27,0,0,0-9.27-9.27v9.27Z"/><path class="cls-2" d="M132.66,93.86h24a62.8,62.8,0,0,0-62.79-62.8h0v24h0A38.8,38.8,0,0,1,132.66,93.86Z"/><path class="cls-2" d="M108.68,93.86h9.21a24,24,0,0,0-24-24h0v9.22h0A14.81,14.81,0,0,1,108.68,93.86Z"/><path class="cls-3" d="M166.28,149.26,146,128.94a62.4,62.4,0,0,0,10.46-29.51H132.27a38.8,38.8,0,1,1-44-44V31.3A62.8,62.8,0,1,0,129,145.92l20.31,20.32Z"/><path class="cls-1" d="M285.49,70.13h0V156.7h21.94V92.07A21.94,21.94,0,0,0,285.49,70.13Z"/><path class="cls-2" d="M296.38,38.44A12.83,12.83,0,0,0,287,42.18a12.45,12.45,0,0,0-3.81,9.26A13,13,0,0,0,296.38,64.6a12.42,12.42,0,0,0,9.26-3.82,12.85,12.85,0,0,0,3.74-9.34,13,13,0,0,0-13-13Z"/><path class="cls-1" d="M512.59,69.83h-22v5.52a43.49,43.49,0,0,0-65.05,37.89,41.79,41.79,0,0,0,12.68,30.82A43.82,43.82,0,0,0,490.64,151v36.77h22v-74.5c0-.42,0-.84,0-1.26h0Zm-28.21,58.62a20.74,20.74,0,0,1-15.21,6.26,21,21,0,0,1-15.28-6.26,21.38,21.38,0,0,1,0-30.41,21,21,0,0,1,15.28-6.26,21.5,21.5,0,0,1,15.21,36.67Z"/><path class="cls-1" d="M397.6,82.55A44.22,44.22,0,0,0,345,75.44V69.83H323v42.08h0c0,.49,0,1,0,1.48V156.7h22V113.39a20.61,20.61,0,0,1,6.39-15.26,21.2,21.2,0,0,1,15.4-6.28,21.77,21.77,0,0,1,21.62,21.54V156.7h22V113.39A41.85,41.85,0,0,0,397.6,82.55Z"/><path class="cls-1" d="M271.93,142.45v-8H257.34a16.6,16.6,0,0,1-16.6-16.6V31.06H218.8v86.88a38.51,38.51,0,0,0,38.52,38.52h14.6v-14Z"/></g></g></svg>