<svg xmlns="http://www.w3.org/2000/svg" id="Smie_Face" data-name="Smie Face" viewBox="0 0 150 150">
    <defs>
        <style>
            .cls-1,.cls-11,.cls-12,.cls-15,.cls-17,.cls-18,.cls-21,.cls-23,.cls-25,.cls-29,.cls-30,.cls-33,.cls-37,.cls-39,.cls-41,.cls-43,.cls-45,.cls-49,.cls-50,.cls-53,.cls-55,.cls-57,.cls-59,.cls-60,.cls-62,.cls-66,.cls-67,.cls-70,.cls-72,.cls-78,.cls-8,.cls-80,.cls-82,.cls-84,.cls-87,.cls-88,.cls-89,.cls-92,.cls-93,.cls-95,.cls-96,.cls-98{fill:none}.cls-2{fill:#fff8e5}.cls-3{clip-path:url(#clip-path)}.cls-4{clip-path:url(#clip-path-2)}.cls-5{clip-path:url(#clip-path-3)}.cls-6{fill:#ebcebe}.cls-10,.cls-27,.cls-28,.cls-32,.cls-36,.cls-47,.cls-48,.cls-6,.cls-64,.cls-65,.cls-7,.cls-74,.cls-75{fill-rule:evenodd}.cls-7{fill:#ecb0a5}.cls-11,.cls-12,.cls-15,.cls-17,.cls-18,.cls-21,.cls-23,.cls-25,.cls-29,.cls-30,.cls-33,.cls-37,.cls-39,.cls-41,.cls-43,.cls-45,.cls-49,.cls-50,.cls-53,.cls-55,.cls-57,.cls-59,.cls-60,.cls-62,.cls-66,.cls-67,.cls-70,.cls-72,.cls-78,.cls-8,.cls-80,.cls-82,.cls-84,.cls-92,.cls-93,.cls-95,.cls-96,.cls-98{stroke:#000}.cls-11,.cls-12,.cls-15,.cls-17,.cls-18,.cls-21,.cls-23,.cls-25,.cls-29,.cls-30,.cls-33,.cls-37,.cls-39,.cls-41,.cls-43,.cls-45,.cls-49,.cls-50,.cls-53,.cls-55,.cls-57,.cls-59,.cls-60,.cls-62,.cls-66,.cls-67,.cls-70,.cls-72,.cls-78,.cls-8,.cls-80,.cls-82,.cls-84,.cls-87,.cls-88,.cls-89,.cls-92,.cls-93,.cls-95,.cls-96,.cls-98{stroke-linecap:round;stroke-linejoin:round;stroke-miterlimit:3}.cls-8{stroke-width:1.352px}.cls-9{clip-path:url(#clip-path-4)}.cls-10{fill:#fff}.cls-11{stroke-width:1.356px}.cls-12{stroke-width:.678px}.cls-13{clip-path:url(#clip-path-5)}.cls-14{clip-path:url(#clip-path-6)}.cls-15{stroke-width:1.351px}.cls-16{clip-path:url(#clip-path-7)}.cls-17{stroke-width:1.357px}.cls-18{stroke-width:.678px}.cls-19{clip-path:url(#clip-path-8)}.cls-20{clip-path:url(#clip-path-9)}.cls-21{stroke-width:1.185px}.cls-22{clip-path:url(#clip-path-10)}.cls-23{stroke-width:1.186px}.cls-24{clip-path:url(#clip-path-11)}.cls-25{stroke-width:1.187px}.cls-26{clip-path:url(#clip-path-12)}.cls-27{fill:#fb0}.cls-28{fill:#fc9700}.cls-29{stroke-width:1.186px}.cls-30{stroke-width:.593px}.cls-31{clip-path:url(#clip-path-13)}.cls-32{fill:#59453e}.cls-33{stroke-width:.514px}.cls-34{clip-path:url(#clip-path-14)}.cls-35{clip-path:url(#clip-path-15)}.cls-36{fill:#fbbd08}.cls-37{stroke-width:1.258px}.cls-38{clip-path:url(#clip-path-16)}.cls-39{stroke-width:1.259px}.cls-40{clip-path:url(#clip-path-17)}.cls-41{stroke-width:1.257px}.cls-42{clip-path:url(#clip-path-18)}.cls-43{stroke-width:1.258px}.cls-44{clip-path:url(#clip-path-19)}.cls-45{stroke-width:1.256px}.cls-46{clip-path:url(#clip-path-20)}.cls-47{fill:#1da1f2}.cls-48{fill:#015e99}.cls-49{stroke-width:1.204px}.cls-50{stroke-width:.301px}.cls-51{clip-path:url(#clip-path-21)}.cls-52{clip-path:url(#clip-path-22)}.cls-53{stroke-width:1.284px}.cls-54{clip-path:url(#clip-path-23)}.cls-55{stroke-width:1.285px}.cls-56{clip-path:url(#clip-path-24)}.cls-57{stroke-width:1.285px}.cls-58{clip-path:url(#clip-path-25)}.cls-59{stroke-width:1.187px}.cls-60{stroke-width:.594px}.cls-61{clip-path:url(#clip-path-26)}.cls-62{stroke-width:1.209px}.cls-63{clip-path:url(#clip-path-27)}.cls-65{fill:#ffb6c7}.cls-66{stroke-width:1.234px}.cls-67{stroke-width:.617px}.cls-68{clip-path:url(#clip-path-28)}.cls-69{clip-path:url(#clip-path-29)}.cls-70{stroke-width:.619px}.cls-71{clip-path:url(#clip-path-30)}.cls-72{stroke-width:.617px}.cls-73{clip-path:url(#clip-path-31)}.cls-74{fill:#ebad98}.cls-75{fill:#ec9f97}.cls-76{clip-path:url(#clip-path-32)}.cls-77{clip-path:url(#clip-path-33)}.cls-78{stroke-width:.617px}.cls-79{clip-path:url(#clip-path-34)}.cls-80{stroke-width:.616px}.cls-81{clip-path:url(#clip-path-35)}.cls-82{stroke-width:.617px}.cls-83{clip-path:url(#clip-path-36)}.cls-84{stroke-width:1.229px}.cls-85{clip-path:url(#clip-path-37)}.cls-86{clip-path:url(#clip-path-38)}.cls-87,.cls-88,.cls-89{stroke:#ff8080}.cls-87{stroke-width:.489px}.cls-88{stroke-width:.367px}.cls-89{stroke-width:.612px}.cls-90{clip-path:url(#clip-path-39)}.cls-91{clip-path:url(#clip-path-40)}.cls-92{stroke-width:1.222px}.cls-93{stroke-width:.611px}.cls-94{clip-path:url(#clip-path-41)}.cls-95{stroke-width:1.189px}.cls-96{stroke-width:.297px}.cls-97{clip-path:url(#clip-path-42)}.cls-98{stroke-width:1.188px}
        </style>
        <clipPath id="clip-path">
            <circle id="Ellipse_302" cx="75" cy="75" r="75" data-name="Ellipse 302"/>
        </clipPath>
        <clipPath id="clip-path-2">
            <path id="Rectangle_3179" d="M0 0h22.646v58.398H0z" class="cls-1" data-name="Rectangle 3179" transform="translate(-11.358 -29.166)"/>
        </clipPath>
        <clipPath id="clip-path-3">
            <path id="Rectangle_3177" d="M0 0h11.17v27.343H0z" class="cls-1" data-name="Rectangle 3177" transform="translate(-5.585 -13.672)"/>
        </clipPath>
        <clipPath id="clip-path-4">
            <path id="Rectangle_3178" d="M0 0h22.702v33.088H0z" class="cls-1" data-name="Rectangle 3178" transform="translate(-11.351 -16.544)"/>
        </clipPath>
        <clipPath id="clip-path-5">
            <path id="Rectangle_3182" d="M0 0h23.233v57.812H0z" class="cls-1" data-name="Rectangle 3182" transform="translate(-11.581 -28.873)"/>
        </clipPath>
        <clipPath id="clip-path-6">
            <path id="Rectangle_3180" d="M0 0h12.774v29.434H0z" class="cls-1" data-name="Rectangle 3180" transform="translate(-6.352 -14.717)"/>
        </clipPath>
        <clipPath id="clip-path-7">
            <path id="Rectangle_3181" d="M0 0h23.2v32.97H0z" class="cls-1" data-name="Rectangle 3181" transform="translate(-11.635 -16.485)"/>
        </clipPath>
        <clipPath id="clip-path-8">
            <path id="Rectangle_3186" d="M0 0h33.174v109.967H0z" class="cls-1" data-name="Rectangle 3186" transform="translate(-16.617 -54.954)"/>
        </clipPath>
        <clipPath id="clip-path-9">
            <path id="Rectangle_3183" d="M0 0h28.547v55.199H0z" class="cls-1" data-name="Rectangle 3183" transform="translate(-14.274 -27.6)"/>
        </clipPath>
        <clipPath id="clip-path-10">
            <path id="Rectangle_3184" d="M0 0h26.517v49.059H0z" class="cls-1" data-name="Rectangle 3184" transform="translate(-13.288 -24.5)"/>
        </clipPath>
        <clipPath id="clip-path-11">
            <path id="Rectangle_3185" d="M0 0h21.78v43.619H0z" class="cls-1" data-name="Rectangle 3185" transform="translate(-10.86 -21.78)"/>
        </clipPath>
        <clipPath id="clip-path-12">
            <path id="Rectangle_3187" d="M0 0h39.732v47.026H0z" class="cls-1" data-name="Rectangle 3187" transform="translate(-19.866 -23.483)"/>
        </clipPath>
        <clipPath id="clip-path-13">
            <path id="Rectangle_3188" d="M0 0h20.707v7.427H0z" class="cls-1" data-name="Rectangle 3188" transform="translate(-10.353 -3.713)"/>
        </clipPath>
        <clipPath id="clip-path-14">
            <path id="Rectangle_3194" d="M0 0h95.39v121.805H0z" class="cls-1" data-name="Rectangle 3194" transform="translate(-47.695 -60.903)"/>
        </clipPath>
        <clipPath id="clip-path-15">
            <path id="Rectangle_3189" d="M0 0h58.13v34.625H0z" class="cls-1" data-name="Rectangle 3189" transform="translate(-29.065 -17.312)"/>
        </clipPath>
        <clipPath id="clip-path-16">
            <path id="Rectangle_3190" d="M0 0h36.328v74.07H0z" class="cls-1" data-name="Rectangle 3190" transform="translate(-18.196 -37.004)"/>
        </clipPath>
        <clipPath id="clip-path-17">
            <path id="Rectangle_3191" d="M0 0h46.56v54.85H0z" class="cls-1" data-name="Rectangle 3191" transform="translate(-23.28 -27.425)"/>
        </clipPath>
        <clipPath id="clip-path-18">
            <path id="Rectangle_3192" d="M0 0h41.592v76.26H0z" class="cls-1" data-name="Rectangle 3192" transform="translate(-20.796 -38.13)"/>
        </clipPath>
        <clipPath id="clip-path-19">
            <path id="Rectangle_3193" d="M0 0h46.537v56.551H0z" class="cls-1" data-name="Rectangle 3193" transform="translate(-23.268 -28.276)"/>
        </clipPath>
        <clipPath id="clip-path-20">
            <path id="Rectangle_3195" d="M0 0h71.329v106.152H0z" class="cls-1" data-name="Rectangle 3195" transform="translate(-35.635 -53.076)"/>
        </clipPath>
        <clipPath id="clip-path-21">
            <path id="Rectangle_3199" d="M0 0h69.879v79.577H0z" class="cls-1" data-name="Rectangle 3199" transform="translate(-34.94 -39.821)"/>
        </clipPath>
        <clipPath id="clip-path-22">
            <path id="Rectangle_3196" d="M0 0h44.418v72.533H0z" class="cls-1" data-name="Rectangle 3196" transform="translate(-22.209 -36.267)"/>
        </clipPath>
        <clipPath id="clip-path-23">
            <path id="Rectangle_3197" d="M0 0h30.701v56.199H0z" class="cls-1" data-name="Rectangle 3197" transform="translate(-15.35 -28.132)"/>
        </clipPath>
        <clipPath id="clip-path-24">
            <path id="Rectangle_3198" d="M0 0h31.735v39.572H0z" class="cls-1" data-name="Rectangle 3198" transform="translate(-15.867 -19.786)"/>
        </clipPath>
        <clipPath id="clip-path-25">
            <path id="Rectangle_3200" d="M0 0h29.912v42.851H0z" class="cls-1" data-name="Rectangle 3200" transform="translate(-14.956 -21.425)"/>
        </clipPath>
        <clipPath id="clip-path-26">
            <path id="Rectangle_3201" d="M0 0h71.501v86.42H0z" class="cls-1" data-name="Rectangle 3201" transform="translate(-35.75 -43.21)"/>
        </clipPath>
        <clipPath id="clip-path-27">
            <path id="Rectangle_3213" d="M0 0h120.623v119.821H0z" class="cls-1" data-name="Rectangle 3213" transform="translate(-60.281 -59.911)"/>
        </clipPath>
        <clipPath id="clip-path-28">
            <path id="Rectangle_3204" d="M0 0h74.015v23.396H0z" class="cls-1" data-name="Rectangle 3204" transform="translate(-37.039 -11.667)"/>
        </clipPath>
        <clipPath id="clip-path-29">
            <path id="Rectangle_3202" d="M0 0h27.3v22.966H0z" class="cls-1" data-name="Rectangle 3202" transform="translate(-13.619 -11.452)"/>
        </clipPath>
        <clipPath id="clip-path-30">
            <path id="Rectangle_3203" d="M0 0h28.732v22.813H0z" class="cls-1" data-name="Rectangle 3203" transform="translate(-14.366 -11.407)"/>
        </clipPath>
        <clipPath id="clip-path-31">
            <path id="Rectangle_3205" d="M0 0h24.618v28.629H0z" class="cls-1" data-name="Rectangle 3205" transform="translate(-12.34 -14.314)"/>
        </clipPath>
        <clipPath id="clip-path-32">
            <path id="Rectangle_3206" d="M0 0h25.359v29.924H0z" class="cls-1" data-name="Rectangle 3206" transform="translate(-12.71 -14.931)"/>
        </clipPath>
        <clipPath id="clip-path-33">
            <path id="Rectangle_3207" d="M0 0h17.576v34.535H0z" class="cls-1" data-name="Rectangle 3207" transform="translate(-8.819 -17.267)"/>
        </clipPath>
        <clipPath id="clip-path-34">
            <path id="Rectangle_3208" d="M0 0h59.223v10.785H0z" class="cls-1" data-name="Rectangle 3208" transform="translate(-29.58 -5.361)"/>
        </clipPath>
        <clipPath id="clip-path-35">
            <path id="Rectangle_3209" d="M0 0h15.846v6.104H0z" class="cls-1" data-name="Rectangle 3209" transform="translate(-7.954 -3.021)"/>
        </clipPath>
        <clipPath id="clip-path-36">
            <path id="Rectangle_3210" d="M0 0h20.218v18.989H0z" class="cls-1" data-name="Rectangle 3210" transform="translate(-10.14 -9.464)"/>
        </clipPath>
        <clipPath id="clip-path-37">
            <path id="Rectangle_3211" d="M0 0h63.649v9.005H0z" class="cls-1" data-name="Rectangle 3211" transform="translate(-31.824 -4.502)"/>
        </clipPath>
        <clipPath id="clip-path-38">
            <path id="Rectangle_3212" d="M0 0h7.281v6.179H0z" class="cls-1" data-name="Rectangle 3212" transform="translate(-3.61 -3.059)"/>
        </clipPath>
        <clipPath id="clip-path-39">
            <path id="Rectangle_3214" d="M0 0h20.179v29.675H0z" class="cls-1" data-name="Rectangle 3214" transform="translate(-10.09 -14.837)"/>
        </clipPath>
        <clipPath id="clip-path-40">
            <path id="Rectangle_3215" d="M0 0h28.606v29.864H0z" class="cls-1" data-name="Rectangle 3215" transform="translate(-14.332 -14.932)"/>
        </clipPath>
        <clipPath id="clip-path-41">
            <path id="Rectangle_3216" d="M0 0h69.658v79.933H0z" class="cls-1" data-name="Rectangle 3216" transform="translate(-34.829 -39.967)"/>
        </clipPath>
        <clipPath id="clip-path-42">
            <path id="Rectangle_3217" d="M0 0h56.855v9.446H0z" class="cls-1" data-name="Rectangle 3217" transform="translate(-28.398 -4.753)"/>
        </clipPath>
    </defs>
    <circle id="Ellipse_301" cx="75" cy="75" r="75" class="cls-2" data-name="Ellipse 301"/>
    <g id="Group_3437" class="cls-3" data-name="Group 3437">
        <path id="Rectangle_3176" d="M0 0h150.8v356.5H0z" class="cls-1" data-name="Rectangle 3176" transform="translate(8.4 16.8)"/>
        <g id="Group_3392" class="cls-4" data-name="Group 3392" transform="translate(103.56 344.108)">
            <g id="Group_3389" class="cls-5" data-name="Group 3389" transform="translate(-4.229 -15.528)">
                <g id="Layer_3_27_">
                    <path id="Path_5748" d="M-1.117 13.541l-.349-26.166.07-.065q3.246-1.472 6.283 4.317l-.7 19.951c-.487 1.309-2.232 1.963-5.304 1.963z" class="cls-6" data-name="Path 5748"/>
                    <path id="Path_5749" d="M-1.466-12.625l.349 26.166c-.908.392-1.955-.2-3.072-1.635a69.553 69.553 0 0 0-.7-21.063 8.607 8.607 0 0 1 3.423-3.468z" class="cls-7" data-name="Path 5749"/>
                    <path id="Path_5750" d="M-4.259 11.84a66.927 66.927 0 0 0-.628-21 9.317 9.317 0 0 1 3.421-3.53l.07-.065q3.246-1.473 6.283 4.317l-.7 20.017" class="cls-8" data-name="Path 5750"/>
                </g>
            </g>
            <g id="Group_3391" class="cls-9" data-name="Group 3391" transform="translate(0 12.663)">
                <g id="Group_3390" data-name="Group 3390">
                    <path id="Path_5751" d="M.841 12.6l.07-.263C-4.2-1.97-6.306-10.964-5.325-14.64l.07-.525a19.657 19.657 0 0 0 5.115-.722c-.911 5.186.07 9.519 2.873 13A91.728 91.728 0 0 1 10.51 9.322a3.835 3.835 0 0 1-.771 3.611.066.066 0 0 0-.07.066A6.385 6.385 0 0 1 7.5 14.443h-.07a13.557 13.557 0 0 1-2.172.722 17.084 17.084 0 0 1-1.962.394h-.07a22.416 22.416 0 0 1-1.121-2.3A2.957 2.957 0 0 0 .841 12.6zm3.433-.788a3.974 3.974 0 0 1 1.051 3.414 3.974 3.974 0 0 0-1.051-3.409zm3.784-2.621a8 8 0 0 1 1.191 3.479 8 8 0 0 0-1.191-3.479zM6.306 10.57A6.94 6.94 0 0 1 7.5 14.443a6.94 6.94 0 0 0-1.194-3.873z" class="cls-6" data-name="Path 5751"/>
                    <path id="Path_5752" d="M-5.325-15.165v.525Q-6.8-9.125.981 12.342l-.07.263a.925.925 0 0 0-1.191.525 6.866 6.866 0 0 1 .28 1.9c-.07 0-.07.066-.14.066-.981 1.05-2.382 1.05-4.2.066-.35-.2-.771-.46-1.191-.722a4.283 4.283 0 0 1-.14-2.626C-7.848 10.9-8.688 9.191-8.268 6.7a.066.066 0 0 1 .07-.066v-.069c0-.066 0-.066.07-.066a.232.232 0 0 1 .07-.2 5.779 5.779 0 0 0-.911-5.186.915.915 0 0 0-.21-.263c-1.682-1.773-1.892-4.136-.631-6.959a2.261 2.261 0 0 1 .28-.591 22.338 22.338 0 0 0 1.121-9.125 6.059 6.059 0 0 0 3.084.66zm-.35 27.048a2.791 2.791 0 0 1 .42-1.05c-.145.328-.28.656-.421 1.05zm1.962.985c-.07 0-.14.066-.21.131l.14 1.379 1.962-.066v-.328h.21l-.14-1.116a1.434 1.434 0 0 0-1.962-.2z" class="cls-7" data-name="Path 5752"/>
                    <path id="Path_5753" d="M-3.714 12.868l-.07-.2a1.434 1.434 0 0 1 1.962.2l.14 1.116h-1.891z" class="cls-10" data-name="Path 5753"/>
                    <path id="Path_5754" d="M-.21-15.887q-1.261 7.78 2.943 13A91.728 91.728 0 0 1 10.51 9.322a3.835 3.835 0 0 1-.771 3.611.066.066 0 0 0-.07.066A6.385 6.385 0 0 1 7.5 14.443h-.07a13.557 13.557 0 0 1-2.172.722 17.084 17.084 0 0 1-1.962.394h-.07a22.416 22.416 0 0 1-1.121-2.3A2.361 2.361 0 0 0 .841 12.6a.874.874 0 0 0-1.121.53 6.866 6.866 0 0 1 .28 1.9c-.07 0-.07.066-.14.066-.981 1.05-2.382 1.05-4.2.066-.35-.2-.771-.46-1.191-.722a4.283 4.283 0 0 1-.14-2.626C-7.848 10.9-8.688 9.191-8.268 6.7a.066.066 0 0 1 .07-.066v-.069c0-.066 0-.066.07-.066a.232.232 0 0 1 .07-.2 5.779 5.779 0 0 0-.911-5.186.915.915 0 0 0-.21-.263c-1.682-1.773-1.892-4.136-.631-6.959a2.261 2.261 0 0 1 .28-.591 22.338 22.338 0 0 0 1.121-9.125m2.733 27.7a2.791 2.791 0 0 1 .42-1.05m9.529.985a3.974 3.974 0 0 1 1.051 3.414m2.733-6.04a8 8 0 0 1 1.191 3.479m-2.943-2.1a6.94 6.94 0 0 1 1.195 3.88" class="cls-11" data-name="Path 5754"/>
                    <path id="Path_5755" d="M-3.714 12.868l.14 1.182h1.962l-.14-1.116a1.434 1.434 0 0 0-1.962-.2z" class="cls-12" data-name="Path 5755"/>
                </g>
            </g>
        </g>
        <g id="Group_3396" class="cls-13" data-name="Group 3396" transform="translate(51.765 343.775)">
            <g id="Group_3394" class="cls-14" data-name="Group 3394" transform="translate(3.893 -14.205)">
                <g id="Group_3393" data-name="Group 3393">
                    <path id="Path_5756" d="M-2.792-12.885A244.286 244.286 0 0 0-.977 14.39a11.07 11.07 0 0 1-3.909-3.79l-.768-20.411a10.684 10.684 0 0 1 2.862-3.074z" class="cls-7" data-name="Path 5756"/>
                    <path id="Path_5757" d="M-.977 14.39a244.286 244.286 0 0 1-1.815-27.275c2.443-1.635 5.165-1.57 8.307.262l.209 24.2c-2.443 2.682-4.607 3.663-6.492 2.878-.139 0-.139-.065-.209-.065z" class="cls-6" data-name="Path 5757"/>
                    <path id="Path_5758" d="M-4.816 10.6l-.838-20.411a11.737 11.737 0 0 1 2.862-3.074c2.443-1.635 5.165-1.57 8.307.262l.209 24.2" class="cls-15" data-name="Path 5758"/>
                </g>
            </g>
            <g id="Group_3395" class="cls-16" data-name="Group 3395" transform="translate(0 12.423)">
                <g id="Layer_3_26_">
                    <path id="Path_5759" d="M-2.944 14.055a4.6 4.6 0 0 1 1.051-3.218c.14-.2.28-.328.421-.525a3.674 3.674 0 0 0-.421.525 35.838 35.838 0 0 1 5.327-15.3l-.42-.397a.269.269 0 0 0-.21-.066l.21-.46a16.364 16.364 0 0 1-.561-8.078v-.525a20.532 20.532 0 0 0 6.939-.854 18.174 18.174 0 0 0 .631 9.064 3.543 3.543 0 0 1 .28.788c.981 2.627.771 4.794-.771 6.371a.066.066 0 0 0-.07.066c-.07.066-.07.066-.07.131a3 3 0 0 0-.911 1.642 2.307 2.307 0 0 0-.07.919V4.6c.28 3.809-.7 5.78-3.014 6.042a4.8 4.8 0 0 1-1.332 4.466L4 15.237c-1.963.919-3.434.788-4.486-.263a5.534 5.534 0 0 1 .21-2.627l-.28-.066c-.425-.656-1.196-.065-2.388 1.774zm4.206-.525l1.963.328.07-1.117A1.543 1.543 0 0 0 1.4 12.15zm-.491-3.022a5.74 5.74 0 0 0-1.051 1.9 5.74 5.74 0 0 1 1.051-1.9z" class="cls-6" data-name="Path 5759"/>
                    <path id="Path_5760" d="M-1.822 10.9a4.407 4.407 0 0 0-1.051 3.218c-.07.066-.14.131-.14.2a8.134 8.134 0 0 1-3.014.394H-6.1a9.526 9.526 0 0 1-1.892-.328c-.35-.131-.771-.263-1.121-.394a.25.25 0 0 1-.14-.066c-.14-.066-.28-.066-.35-.131-1.472-.591-1.682-2.3-.7-5.189a.376.376 0 0 1 .07-.263c.35-2.167 3.084-5.911 8.341-11.165l.14-.2c0-.066.07-.066.07-.131.07-.2.21-.328.28-.525a37.652 37.652 0 0 0 .561-12.083 5.127 5.127 0 0 0 3.434 1.839v.525a14.063 14.063 0 0 0 .491 8.013l-.28.46c.07 0 .07.066.14.131l.421.394A34.985 34.985 0 0 0-1.822 10.9zm-7.85 2.824A5.743 5.743 0 0 1-8.2 9.261a5.663 5.663 0 0 0-1.473 4.466zm5.257-3.021c-1.472 1.051-2.033 2.233-1.682 3.481-.351-1.245.209-2.428 1.681-3.478zm-2.453.131a2.952 2.952 0 0 0-1.122 3.484 2.865 2.865 0 0 1 1.121-3.481zM2.8-4.926C1.051-6.108-.421-5.714-1.542-3.744-.421-5.714 1.051-6.108 2.8-4.926z" class="cls-7" data-name="Path 5760"/>
                    <path id="Path_5761" d="M1.262 13.53l.138-1.38a1.569 1.569 0 0 1 1.892.591l-.07 1.117z" class="cls-10" data-name="Path 5761"/>
                    <path id="Path_5762" d="M9.392-14.843a18.174 18.174 0 0 0 .631 9.064 3.543 3.543 0 0 1 .28.788c.981 2.627.771 4.794-.771 6.371a.066.066 0 0 0-.07.066c-.07.066-.07.066-.07.131a3 3 0 0 0-.911 1.642 2.307 2.307 0 0 0-.07.919V4.6c.28 3.809-.7 5.78-3.014 6.042a4.8 4.8 0 0 1-1.332 4.466L4 15.237c-1.963.919-3.434.788-4.486-.263a5.534 5.534 0 0 1 .21-2.627m-.28-.066q-.631-.985-2.313 1.773c-.07.066-.14.131-.14.2a8.134 8.134 0 0 1-3.014.394H-6.1a9.526 9.526 0 0 1-1.892-.328c-.35-.131-.771-.263-1.121-.394a.25.25 0 0 1-.14-.066c-.14-.066-.28-.066-.35-.131-1.472-.591-1.682-2.3-.7-5.189a.376.376 0 0 1 .07-.263c.35-2.167 3.084-5.911 8.341-11.165l.14-.2c0-.066.07-.066.07-.131.07-.2.21-.328.28-.525a37.652 37.652 0 0 0 .561-12.084M-1.822 10.9c.14-.2.28-.328.421-.525M2.8-4.926c.07 0 .07.066.14.131M-9.673 13.727A5.743 5.743 0 0 1-8.2 9.261m6.378 1.639a4.407 4.407 0 0 0-1.051 3.218m-1.542-3.415c-1.472 1.051-2.033 2.233-1.682 3.481m-.771-3.35a2.952 2.952 0 0 0-1.122 3.484M2.8-4.926C1.051-6.108-.421-5.714-1.542-3.744M.771 10.508a5.74 5.74 0 0 0-1.051 1.9" class="cls-17" data-name="Path 5762"/>
                    <path id="Path_5763" d="M1.262 13.53l.138-1.38a1.569 1.569 0 0 1 1.892.591l-.07 1.117z" class="cls-18" data-name="Path 5763"/>
                </g>
            </g>
        </g>
        <g id="Group_3400" class="cls-19" data-name="Group 3400" transform="rotate(2.475 -4867.32 724.894)">
            <g id="Group_3397" class="cls-20" data-name="Group 3397" transform="translate(2.325 -27.379)">
                <g id="Layer_3_25_">
                    <path id="Path_5764" d="M13.326-7.463a94.745 94.745 0 0 1-7.107 29.732q-17.768 13.948-19.9-12.911C-12.2-7.522-6.87-19.6 2.31-27.007h.237c8.353.592 11.964 6.633 10.953 18.064-.056.474-.115.943-.174 1.48z" class="cls-6" data-name="Path 5764"/>
                    <path id="Path_5765" d="M13.326-7.463a94.745 94.745 0 0 1-7.107 29.732q-17.768 13.948-19.9-12.911C-12.2-7.522-6.87-19.6 2.31-27.007h.237c8.353.592 11.964 6.633 10.953 18.064-.056.474-.115.943-.174 1.48z" class="cls-21" data-name="Path 5765"/>
                </g>
            </g>
            <g id="Group_3398" class="cls-22" data-name="Group 3398" transform="translate(-3.332 3.475)">
                <g id="Layer_3_24_">
                    <path id="Path_5766" d="M-7.178-17.085c9.551-11.034 16.195-9.788 19.813 3.737A49.007 49.007 0 0 1 8.008 9.669a2.107 2.107 0 0 0-.237.534 10.91 10.91 0 0 0-1.305 6.051q-7.741 11.835-17.441 5.458a44.7 44.7 0 0 0-.593-7.83V13.7a.882.882 0 0 1-.059-.356c-2.254-8.005-.773-18.09 4.449-30.429z" class="cls-6" data-name="Path 5766"/>
                    <path id="Path_5767" d="M12.636-13.347A49.007 49.007 0 0 1 8.008 9.669a2.107 2.107 0 0 0-.237.534 10.91 10.91 0 0 0-1.305 6.051q-7.741 11.835-17.441 5.458a44.7 44.7 0 0 0-.593-7.83V13.7a.882.882 0 0 1-.059-.356c-2.254-8.005-.773-18.09 4.449-30.429" class="cls-23" data-name="Path 5767"/>
                </g>
            </g>
            <g id="Group_3399" class="cls-24" data-name="Group 3399" transform="translate(-5.577 33.165)">
                <g id="Layer_3_23_">
                    <path id="Path_5768" d="M6.409 21.127l-1.78-1.068.178-.356c.593-1.6-.356-2.73-2.849-3.323l-.475 1.78-2.076-1.306-.415.059a5.344 5.344 0 0 1-2.018-1.187c-1.484-1.426-2.315-3.857-2.493-7.24.178 3.383 1.068 5.816 2.493 7.24l-.415.356C-9.08 13.175-11.276 8.308-9.97 1.543c.059-.237.3-1.246.653-3.145a33.672 33.672 0 0 0 .534-6.172c-.059-2.018-.059-3.145-.059-3.442l.356-.415c.178.89.89-1.484 2.2-7.062s6.113-3.679 14.48 5.816l-.237.178C10.563-5.46 10.979.3 9.2 4.688c.356 2.136.593 4.629.771 7.418v.119c-1.78 2.2-3.442 3.027-5.044 2.433a3.663 3.663 0 0 1-1.306-.89 3.84 3.84 0 0 1-.475-.534A39.062 39.062 0 0 1 .475-.119a41.768 41.768 0 0 0 2.611 13.472 3.84 3.84 0 0 1 .475.534 4.907 4.907 0 0 0 1.365.89c2.552 1.9 3.2 4.095 1.958 6.528h-.059zM7.952 1.543L9.2 4.688zm-3.2 8.19l-.119 2.255a3.919 3.919 0 0 0 3.62.119V9.733c-.835-1.603-2.022-1.603-3.505 0z" class="cls-6" data-name="Path 5768"/>
                    <path id="Path_5769" d="M4.748 9.733c1.484-1.662 2.611-1.662 3.5 0v2.374a3.921 3.921 0 0 1-3.62-.119zm.119 9.97l-.178.356L1.6 18.16l.475-1.78c2.435.593 3.385 1.72 2.791 3.32z" class="cls-10" data-name="Path 5769"/>
                    <path id="Path_5770" d="M-8.486-11.632l-.356.415c0 .3 0 1.424.059 3.442A29.283 29.283 0 0 1-9.258-1.6c-.415 1.9-.593 2.908-.653 3.145-1.306 6.765.89 11.572 6.528 14.54m.356-.415c-1.484-1.424-2.314-3.857-2.552-7.24M7.952 1.543L9.2 4.688C10.979.3 10.623-5.46 7.952-12.7M.475-.119a41.768 41.768 0 0 0 2.611 13.472 3.84 3.84 0 0 1 .475.534 4.907 4.907 0 0 0 1.365.89c1.6.593 3.264-.237 5.044-2.433v-.119a74.98 74.98 0 0 0-.77-7.477M4.748 9.733c1.484-1.662 2.611-1.662 3.5 0v2.374a3.921 3.921 0 0 1-3.62-.119zm.119 9.97c.593-1.6-.356-2.73-2.849-3.323l-.475 1.78 3.086 1.9m.3-5.341c2.552 1.9 3.2 4.095 1.958 6.528h-.062m-.415-.119L4.63 20.06m-3.086-1.9l-2.137-1.306-.415.059a5.344 5.344 0 0 1-2.018-1.187" class="cls-25" data-name="Path 5770"/>
                </g>
            </g>
        </g>
        <g id="XMLID_4_" class="cls-26" transform="rotate(-11.76 805.444 -71.723)">
            <g id="Group_3401" data-name="Group 3401">
                <path id="Path_5771" d="M13.876-22.475Q26.508-.059 11.149 22.831l-.237-.119Q-9.281 4.566-3.558-13.936a89.422 89.422 0 0 1 17.079-8.836z" class="cls-27" data-name="Path 5771"/>
                <path id="Path_5772" d="M10.971 23.009C4.507 21.23-2.076 17.612-8.658 12.038a7.987 7.987 0 0 0 1.127-4.685 6.436 6.436 0 0 0-4.151 2.017c-2.194-2.016-4.388-4.27-6.582-6.7-.178-.178-.356-.415-.534-.593a2.411 2.411 0 0 1 .059-3.024 1.041 1.041 0 0 1 .237-.3c.3-.3.534-.593.83-.89A84.5 84.5 0 0 1-3.5-14C-7.353-1.66-2.491 10.674 10.971 22.772l.237.119c-.059.059-.119.119-.119.178a.184.184 0 0 0-.118-.06z" class="cls-28" data-name="Path 5772"/>
                <path id="Path_5773" d="M13.521-22.949a89.422 89.422 0 0 0-17.079 8.835A86.515 86.515 0 0 0-17.672-2.253c-.3.3-.534.593-.83.89-.059.059-.119.178-.237.3a2.411 2.411 0 0 0-.061 3.02 4.815 4.815 0 0 0 .534.593 117.524 117.524 0 0 0 6.523 6.7 6.728 6.728 0 0 1 4.152-2.015c0 2.135-.356 3.736-1.127 4.685 6.583 5.574 13.166 9.25 19.629 10.97" class="cls-29" data-name="Path 5773"/>
                <path id="Path_5774" d="M11.149 22.712q15.3-22.772 2.728-45.247m-2.906 45.544h.059c.059-.059.119-.119.119-.178" class="cls-30" data-name="Path 5774"/>
            </g>
        </g>
        <g id="Group_3403" class="cls-31" data-name="Group 3403" transform="rotate(-7 1874.723 -52.538)">
            <g id="Group_3402" data-name="Group 3402">
                <path id="Path_5775" d="M5.757-2.676A1.367 1.367 0 0 1 6.144-3a1.613 1.613 0 0 1 .532-.218h.1a1.167 1.167 0 0 1 .871.164 1.192 1.192 0 0 1 .484.819 1.1 1.1 0 0 1-.242.928 1.276 1.276 0 0 1-.871.546c-.1 0-.194.055-.29.055s-.148-.058-.245-.058l-.435-.164a1.193 1.193 0 0 1-.532-.764 1.356 1.356 0 0 1 .241-.984zM3.58-.491l-.435-.164a1.476 1.476 0 0 1-.532-.819.965.965 0 0 1-.242.655 1.276 1.276 0 0 1-.871.546c-.1 0-.194.055-.29.055H.968C.822-.273.629-.328.484-.382A1.4 1.4 0 0 1 0-1.2a1.5 1.5 0 0 1 .242-.983 2.74 2.74 0 0 1 .387-.328 1.613 1.613 0 0 1 .532-.218h.1a1.167 1.167 0 0 1 .871.164 1.192 1.192 0 0 1 .484.819v.055a1.413 1.413 0 0 1 .242-.764 1.045 1.045 0 0 1 .387-.273 1.613 1.613 0 0 1 .532-.218 1.427 1.427 0 0 1 .968.164 1.26 1.26 0 0 1 .532.819 1.1 1.1 0 0 1-.242.928 1.276 1.276 0 0 1-.871.546zm1.113.382a1.476 1.476 0 0 1 .532.819 1.1 1.1 0 0 1-.242.928 1.276 1.276 0 0 1-.871.546H3.58c-.145-.055-.339-.109-.484-.164a1 1 0 0 1-.483-.82.815.815 0 0 1-.29.655 1.276 1.276 0 0 1-.871.546c-.1 0-.194.055-.29.055H.919l-.435-.163a1.476 1.476 0 0 1-.532-.819A1.284 1.284 0 0 1 .194.546 2.74 2.74 0 0 1 .581.218.946.946 0 0 1 1.113 0h.1a1.258 1.258 0 0 1 .867.164 1.26 1.26 0 0 1 .532.819v.109a1.342 1.342 0 0 1 .242-.819.678.678 0 0 1 .339-.328 1.613 1.613 0 0 1 .532-.218.986.986 0 0 1 .968.164zm-2.08-1.529zm0 2.676zM5.757 0a1.367 1.367 0 0 1 .387-.328 1.613 1.613 0 0 1 .532-.218h.1a1.167 1.167 0 0 1 .871.164 1.476 1.476 0 0 1 .532.819 1.1 1.1 0 0 1-.242.928 1.276 1.276 0 0 1-.871.546c-.1 0-.194.055-.29.055h-.245L6.1 1.8a1.18 1.18 0 0 1-.536-.817A1.012 1.012 0 0 1 5.757 0zm4.354-2.512a1.135 1.135 0 0 1-.145.819.812.812 0 0 1-.532.491c-.048 0-.145.055-.194.055s-.1-.055-.194-.055l-.29-.164a1.31 1.31 0 0 1-.29-.655 1.345 1.345 0 0 1 .145-.874 1.424 1.424 0 0 1 .242-.328.764.764 0 0 1 .339-.218h.048a.505.505 0 0 1 .532.164 1.1 1.1 0 0 1 .339.765zM9.192-.71h.048a.505.505 0 0 1 .532.164.854.854 0 0 1 .29.71 1.135 1.135 0 0 1-.145.819.727.727 0 0 1-.532.437c-.048 0-.1.055-.194.055H9l-.29-.164A1.306 1.306 0 0 1 8.418.6a1.345 1.345 0 0 1 .145-.874A1.424 1.424 0 0 1 8.805-.6a1.035 1.035 0 0 0 .387-.11zm-18.384-.983a4.031 4.031 0 0 1 .435.71 2.049 2.049 0 0 1 .048.928A.975.975 0 0 1-9 .6c-.1.055-.145.109-.242.109S-9.386.655-9.483.6a3.4 3.4 0 0 1-.435-.655 2.278 2.278 0 0 1-.1-.983 3.831 3.831 0 0 1 .1-.382.626.626 0 0 1 .242-.273c.145-.164.29-.164.484 0zm.387 3.44a2.049 2.049 0 0 1 .048.928.975.975 0 0 1-.29.655c-.1.055-.145.109-.242.109s-.145-.055-.242-.109a3.4 3.4 0 0 1-.435-.655 2.278 2.278 0 0 1-.1-.983 3.831 3.831 0 0 1 .1-.382.626.626 0 0 1 .242-.273c.145-.109.29-.109.484.055.193.055.29.328.435.655zm.726-3.495a1.613 1.613 0 0 1 .532-.218 1.427 1.427 0 0 1 .967.166 1.476 1.476 0 0 1 .532.819 1.1 1.1 0 0 1-.242.928 1.276 1.276 0 0 1-.87.544.881.881 0 0 1-.532 0 1.739 1.739 0 0 0 .532 0 1.276 1.276 0 0 0 .871-.546 1.1 1.1 0 0 0 .242-.928A1.1 1.1 0 0 0-6.58-1.8a1.427 1.427 0 0 0-.968-.164 1.613 1.613 0 0 0-.532.218c.048-.055.1-.164.194-.218a.994.994 0 0 1 .919-.328 1.392 1.392 0 0 1 .919.546A2.213 2.213 0 0 1-5.757-.6a1.3 1.3 0 0 1-.435.983 1.741 1.741 0 0 1-.823.327c.145.055.242.109.387.164a1.476 1.476 0 0 1 .532.819 1.1 1.1 0 0 1-.242.928 1.276 1.276 0 0 1-.871.546 1.93 1.93 0 0 1-.532.055A3.123 3.123 0 0 1-8.225 3a.989.989 0 0 1-.484-.764 1.5 1.5 0 0 1 .242-.983 2.74 2.74 0 0 1 .388-.325A1.613 1.613 0 0 1-7.547.71a.394.394 0 0 0 .242-.055 3.106 3.106 0 0 1-.387-.164l-.436-.163a.989.989 0 0 1-.484-.764 1.5 1.5 0 0 1 .242-.984c0-.109.145-.218.291-.327zM-7.354.71a.952.952 0 0 1 .387.055C-7.112.71-7.209.655-7.354.71zm2.806-2.949a1.167 1.167 0 0 1 .871.164 1.476 1.476 0 0 1 .532.819 1.1 1.1 0 0 1-.242.928 1.276 1.276 0 0 1-.871.546c-.1 0-.194.055-.29.055h-.242l-.435-.164a1.193 1.193 0 0 1-.532-.764 1.149 1.149 0 0 1 .194-.983 1.367 1.367 0 0 1 .387-.328.946.946 0 0 1 .532-.218c0-.055.044-.055.096-.055zM-4.6.491a1.167 1.167 0 0 1 .871.164 1.047 1.047 0 0 1 .532.819 1.1 1.1 0 0 1-.242.928 1.276 1.276 0 0 1-.871.546C-4.4 2.949-4.5 3-4.6 3h-.242a1.627 1.627 0 0 1-.435-.218 1.193 1.193 0 0 1-.532-.764 1.284 1.284 0 0 1 .242-.928 1.367 1.367 0 0 1 .39-.326A3.3 3.3 0 0 1-4.6.491zM-.532-.546A1.276 1.276 0 0 1-1.4 0a1.93 1.93 0 0 1-.532.055 1.9 1.9 0 0 1-.484-.218A1.133 1.133 0 0 1-2.9-.928a1.166 1.166 0 0 1 .242-.983 1.367 1.367 0 0 1 .387-.328 1.613 1.613 0 0 1 .532-.218 1.427 1.427 0 0 1 .968.164 1.043 1.043 0 0 1 .484.819 1.284 1.284 0 0 1-.245.928zM-1.79.218a1.427 1.427 0 0 1 .968.164 1.192 1.192 0 0 1 .483.818 1.1 1.1 0 0 1-.242.928 1.276 1.276 0 0 1-.871.546 1.766 1.766 0 0 1-.532.055 4.215 4.215 0 0 1-.435-.164 1.476 1.476 0 0 1-.532-.819 1.5 1.5 0 0 1 .242-.982 2.74 2.74 0 0 1 .387-.327A1.613 1.613 0 0 1-1.79.218z" class="cls-32" data-name="Path 5775"/>
                <path id="Path_5776" d="M5.757-2.676A1.367 1.367 0 0 1 6.144-3a1.613 1.613 0 0 1 .532-.218h.1a1.167 1.167 0 0 1 .871.164 1.192 1.192 0 0 1 .484.819 1.1 1.1 0 0 1-.242.928 1.276 1.276 0 0 1-.871.546c-.1 0-.194.055-.29.055s-.148-.058-.245-.058l-.435-.164a1.193 1.193 0 0 1-.532-.764 1.356 1.356 0 0 1 .241-.984zM3.58-.491l-.435-.164a1.476 1.476 0 0 1-.532-.819.965.965 0 0 1-.242.655 1.276 1.276 0 0 1-.871.546c-.1 0-.194.055-.29.055H.968C.822-.273.629-.328.484-.382A1.4 1.4 0 0 1 0-1.2a1.5 1.5 0 0 1 .242-.983 2.74 2.74 0 0 1 .387-.328 1.613 1.613 0 0 1 .532-.218h.1a1.167 1.167 0 0 1 .871.164 1.192 1.192 0 0 1 .484.819v.055a1.413 1.413 0 0 1 .242-.764 1.045 1.045 0 0 1 .387-.273 1.613 1.613 0 0 1 .532-.218 1.427 1.427 0 0 1 .968.164 1.26 1.26 0 0 1 .532.819 1.1 1.1 0 0 1-.242.928 1.276 1.276 0 0 1-.871.546zm1.113.382a1.476 1.476 0 0 1 .532.819 1.1 1.1 0 0 1-.242.928 1.276 1.276 0 0 1-.871.546H3.58c-.145-.055-.339-.109-.484-.164a1 1 0 0 1-.483-.82.815.815 0 0 1-.29.655 1.276 1.276 0 0 1-.871.546c-.1 0-.194.055-.29.055H.919l-.435-.163a1.476 1.476 0 0 1-.532-.819A1.284 1.284 0 0 1 .194.546 2.74 2.74 0 0 1 .581.218.946.946 0 0 1 1.113 0h.1a1.258 1.258 0 0 1 .867.164 1.26 1.26 0 0 1 .532.819v.109a1.342 1.342 0 0 1 .242-.819.678.678 0 0 1 .339-.328 1.613 1.613 0 0 1 .532-.218.986.986 0 0 1 .968.164zm-2.08-1.529v.164m0 2.512V1.2M5.757 0a1.367 1.367 0 0 1 .387-.328 1.613 1.613 0 0 1 .532-.218h.1a1.167 1.167 0 0 1 .871.164 1.476 1.476 0 0 1 .532.819 1.1 1.1 0 0 1-.242.928 1.276 1.276 0 0 1-.871.546c-.1 0-.194.055-.29.055h-.245L6.1 1.8a1.18 1.18 0 0 1-.536-.817A1.012 1.012 0 0 1 5.757 0zm4.354-2.512a1.135 1.135 0 0 1-.145.819.812.812 0 0 1-.532.491c-.048 0-.145.055-.194.055s-.1-.055-.194-.055l-.29-.164a1.31 1.31 0 0 1-.29-.655 1.345 1.345 0 0 1 .145-.874 1.424 1.424 0 0 1 .242-.328.764.764 0 0 1 .339-.218h.048a.505.505 0 0 1 .532.164 1.1 1.1 0 0 1 .339.765zM9.192-.71h.048a.505.505 0 0 1 .532.164.854.854 0 0 1 .29.71 1.135 1.135 0 0 1-.145.819.727.727 0 0 1-.532.437c-.048 0-.1.055-.194.055H9l-.29-.164A1.306 1.306 0 0 1 8.418.6a1.345 1.345 0 0 1 .145-.874A1.424 1.424 0 0 1 8.805-.6a1.035 1.035 0 0 0 .387-.11zm-18.384-.983a4.031 4.031 0 0 1 .435.71 2.049 2.049 0 0 1 .048.928A.975.975 0 0 1-9 .6c-.1.055-.145.109-.242.109S-9.386.655-9.483.6a3.4 3.4 0 0 1-.435-.655 2.278 2.278 0 0 1-.1-.983 3.831 3.831 0 0 1 .1-.382.626.626 0 0 1 .242-.273c.145-.164.29-.164.484 0zm.387 3.44a2.049 2.049 0 0 1 .048.928.975.975 0 0 1-.29.655c-.1.055-.145.109-.242.109s-.145-.055-.242-.109a3.4 3.4 0 0 1-.435-.655 2.278 2.278 0 0 1-.1-.983 3.831 3.831 0 0 1 .1-.382.626.626 0 0 1 .242-.273c.145-.109.29-.109.484.055.193.055.29.328.435.655zM-7.015.71c.145.055.242.109.387.164a1.476 1.476 0 0 1 .532.819 1.1 1.1 0 0 1-.242.928 1.276 1.276 0 0 1-.871.546 1.93 1.93 0 0 1-.532.055A3.123 3.123 0 0 1-8.225 3a.989.989 0 0 1-.484-.764 1.5 1.5 0 0 1 .242-.983 2.74 2.74 0 0 1 .388-.325A1.613 1.613 0 0 1-7.547.71a.394.394 0 0 0 .242-.055c.096 0 .193.055.29.055zm-.726-.219l-.435-.163a1 1 0 0 1-.484-.819 1.5 1.5 0 0 1 .242-.983 2.74 2.74 0 0 1 .387-.326 1.613 1.613 0 0 1 .531-.22 1.427 1.427 0 0 1 .968.164A1.476 1.476 0 0 1-6-1.038a1.1 1.1 0 0 1-.242.928 1.276 1.276 0 0 1-.871.546.881.881 0 0 1-.628.055zm3.193-2.73a1.167 1.167 0 0 1 .871.164 1.476 1.476 0 0 1 .532.819 1.1 1.1 0 0 1-.242.928 1.276 1.276 0 0 1-.871.546c-.1 0-.194.055-.29.055h-.242l-.435-.164a1.193 1.193 0 0 1-.532-.764 1.149 1.149 0 0 1 .194-.983 1.367 1.367 0 0 1 .387-.328.946.946 0 0 1 .532-.218c0-.055.044-.055.096-.055zM-4.6.491a1.167 1.167 0 0 1 .871.164 1.047 1.047 0 0 1 .532.819 1.1 1.1 0 0 1-.242.928 1.276 1.276 0 0 1-.871.546C-4.4 2.949-4.5 3-4.6 3h-.242a1.627 1.627 0 0 1-.435-.218 1.193 1.193 0 0 1-.532-.764 1.284 1.284 0 0 1 .242-.928 1.367 1.367 0 0 1 .39-.326A3.3 3.3 0 0 1-4.6.491zM-.532-.546A1.276 1.276 0 0 1-1.4 0a1.93 1.93 0 0 1-.532.055 1.9 1.9 0 0 1-.484-.218A1.133 1.133 0 0 1-2.9-.928a1.166 1.166 0 0 1 .242-.983 1.367 1.367 0 0 1 .387-.328 1.613 1.613 0 0 1 .532-.218 1.427 1.427 0 0 1 .968.164 1.043 1.043 0 0 1 .484.819 1.284 1.284 0 0 1-.245.928zM-1.79.218a1.427 1.427 0 0 1 .968.164 1.192 1.192 0 0 1 .483.818 1.1 1.1 0 0 1-.242.928 1.276 1.276 0 0 1-.871.546 1.766 1.766 0 0 1-.532.055 4.215 4.215 0 0 1-.435-.164 1.476 1.476 0 0 1-.532-.819 1.5 1.5 0 0 1 .242-.982 2.74 2.74 0 0 1 .387-.327A1.613 1.613 0 0 1-1.79.218z" class="cls-33" data-name="Path 5776"/>
            </g>
        </g>
        <g id="XMLID_3_" class="cls-34" transform="translate(73.348 268.708)">
            <g id="Group_3405" class="cls-35" data-name="Group 3405" transform="translate(-.481 -43.596)">
                <g id="Group_3404" data-name="Group 3404">
                    <path id="Path_5777" d="M6.722 16.694q-3.361-8.811-9.411-.185l-.256.309Q-23.5 9.4-28.3-16.261a1.148 1.148 0 0 1 .448-.309 122.12 122.12 0 0 0 56.338.618q.387 26.896-21.764 32.646z" class="cls-36" data-name="Path 5777"/>
                    <path id="Path_5778" d="M28.425-15.952a122.12 122.12 0 0 1-56.338-.618 1.148 1.148 0 0 1-.448.309m25.672 32.77q6.05-8.625 9.411.185M-27.913-16.57c-.192-.062-.32-.062-.512-.124" class="cls-37" data-name="Path 5778"/>
                </g>
            </g>
            <g id="XMLID_15_" class="cls-38" transform="translate(23.75 -23.03)">
                <g id="Layer_3_22_">
                    <path id="Path_5779" d="M-3.4 36.942l-8.774-43.006C-.961-11.015 4.421-21.41 4.1-37.066l.128.866c4.677 3.341 7.432 12.623 8.265 27.908a289.088 289.088 0 0 0 5.126 37.87C9.739 34.962 2.755 37.437-3.4 36.942z" class="cls-27" data-name="Path 5779"/>
                    <path id="Path_5780" d="M-12.174-6.064l8.842 43.006A19.351 19.351 0 0 1-15.121 31.5a212.042 212.042 0 0 0-2.306-35.4v-.186c0-.062-.064-.062-.064-.124a35.652 35.652 0 0 0 5.317-1.854z" class="cls-28" data-name="Path 5780"/>
                    <path id="Path_5781" d="M4.165-36.261C8.842-32.92 11.6-23.638 12.43-8.354a289.088 289.088 0 0 0 5.126 37.87M-15.121 31.5a212.042 212.042 0 0 0-2.306-35.4v-.186c0-.062-.064-.062-.064-.124" class="cls-39" data-name="Path 5781"/>
                </g>
            </g>
            <g id="XMLID_14_" class="cls-40" transform="translate(24.408 33.493)">
                <g id="Group_3406" data-name="Group 3406">
                    <path id="Path_5782" d="M5.5 24.46Q-2.942 12.323-5.244-24.831a174.022 174.022 0 0 0 22.384-1.976c.448 2.347.959 4.633 1.535 6.918.064.309 1.215 5.868 3.326 16.616 2.047 10.686-.32 18.407-7.227 23.1l-.384.124A52.66 52.66 0 0 1 5.5 24.46zm-26.222-3.335l1.407 1.235-.959-.741a3.572 3.572 0 0 1-.448-.494z" class="cls-27" data-name="Path 5782"/>
                    <path id="Path_5783" d="M-5.244-24.831C-3.709-.124-.064 16.369 5.5 24.46c-9.465 3.706-17.78 2.965-24.815-2.1l-1.407-1.235c-2.558-2.9-2.43-8.153.32-15.874a110.061 110.061 0 0 0 4.861-30.39 93.6 93.6 0 0 0 10.297.308z" class="cls-28" data-name="Path 5783"/>
                    <path id="Path_5784" d="M17.076-26.807c.448 2.347.959 4.633 1.535 6.918.064.309 1.215 5.868 3.326 16.616 2.111 10.686-.256 18.407-7.163 23.1m-.384.124A52.661 52.661 0 0 1 5.5 24.46c-9.465 3.706-17.78 2.965-24.815-2.1l-.959-.741-.512-.494c-2.558-2.9-2.43-8.153.32-15.874a110.061 110.061 0 0 0 4.861-30.39" class="cls-41" data-name="Path 5784"/>
                </g>
            </g>
            <g id="Group_3408" class="cls-42" data-name="Group 3408" transform="translate(-23.384 -22.693)">
                <g id="Group_3407" data-name="Group 3407">
                    <path id="Path_5785" d="M-4.927 37.512a345.042 345.042 0 0 1-1.984-71.378l-1.024-.742a23.189 23.189 0 0 1 2.688-2.842c.192 1.051.384 2.1.64 3.152C-1.088-18.911 7.039-8.9 19.9-4.326l.32.062a161.218 161.218 0 0 0-3.455 36.647l-.32.124C8.7 37.45 1.6 39.119-4.927 37.512z" class="cls-36" data-name="Path 5785"/>
                    <path id="Path_5786" d="M-8-34.669l1.024.742A345.042 345.042 0 0 0-4.991 37.45c-5.5-1.36-10.558-5.006-15.229-10.938.512-2.41 1.152-4.944 1.792-7.539 1.024-7.6 1.792-16.624 2.176-27.006V-8.4C-15.229-20.27-12.478-28.984-8-34.669z" class="cls-28" data-name="Path 5786"/>
                    <path id="Path_5787" d="M20.156-4.264A161.218 161.218 0 0 0 16.7 32.383m-36.857-5.809c.512-2.41 1.152-4.944 1.792-7.539 1.024-7.6 1.792-16.624 2.176-27.006v-.371c.96-11.927 3.647-20.7 8.19-26.326a23.189 23.189 0 0 1 2.687-2.843" class="cls-43" data-name="Path 5787"/>
                </g>
            </g>
            <g id="XMLID_13_" class="cls-44" transform="translate(-24.433 31.646)">
                <g id="Group_3409" data-name="Group 3409">
                    <path id="Path_5788" d="M4.794 27.535l2.109-.8A144.348 144.348 0 0 1-5.306-28.09 31.184 31.184 0 0 1 8.118-25.5q9.3 4.352 9.78 3.889c.128 3.642.32 7.347.7 11.051.064.988.192 2.037.32 3.087 0 .556.064 1.111.064 1.729a115.7 115.7 0 0 0 3 20.435c0 .062.064.123.064.185 2.3 7.162-2.685 11.36-15.022 12.533a16.219 16.219 0 0 1-1.726.123z" class="cls-27" data-name="Path 5788"/>
                    <path id="Path_5789" d="M-5.306-28.09A144.348 144.348 0 0 0 6.9 26.732l-2.109.8q-15.725 1.3-25.889-17.1c-.064-.123-.064-.185-.128-.309-2.429-7.655-1.79-20.25 2.046-37.66l.128-.123a69.679 69.679 0 0 1 13.746-.43z" class="cls-28" data-name="Path 5789"/>
                    <path id="Path_5790" d="M17.9-21.608c.128 3.642.32 7.347.7 11.051.064.988.192 2.037.32 3.087 0 .556.064 1.111.064 1.729a115.7 115.7 0 0 0 3 20.435c0 .062.064.123.064.185 2.3 7.162-2.685 11.36-15.022 12.533a16.219 16.219 0 0 1-1.726.123c-.192 0-.384.062-.511.062-10.484.8-19.113-4.877-25.889-17.163-.064-.123-.064-.185-.128-.309-2.429-7.655-1.79-20.25 2.046-37.66l.128-.123" class="cls-45" data-name="Path 5790"/>
                </g>
            </g>
        </g>
        <g id="Group_3410" class="cls-46" data-name="Group 3410" transform="translate(72.121 260.291)">
            <g id="Layer_3_21_">
                <path id="Path_5791" d="M-27.25-51.26c14.673 4.357 33.419 4.055 56.237-1.029l.06.3c5.21 1.513 7.007 19.366 5.51 53.5l-.24 43.514-16.709 4.783q-19.045 5.628-33.958-.666a45.492 45.492 0 0 0-13.415-2.9h-.419c-3.593-.242-5.21-3.631-4.791-10.167L-33.059.847c1.377-11.075 1.677-20.4.9-27.839a7.601 7.601 0 0 0-.18-.605c-2.755-11.62-1.2-19.487 4.791-23.6h.3zm48.391 15.251A162.993 162.993 0 0 1 2.1 27.234Q20.512 2.088 21.141-36.009zm-35.634 20.576q-7.726 42.939 4.971 62.215-8.355-19.155-4.971-62.215z" class="cls-47" data-name="Path 5791"/>
                <path id="Path_5792" d="M21.141-36.009Q20.512 2.027 2.1 27.234a162.993 162.993 0 0 0 19.041-63.243zm-35.634 20.576q-3.414 43.033 4.97 62.215-12.666-19.245-4.97-62.215z" class="cls-48" data-name="Path 5792"/>
                <path id="Path_5793" d="M29.047-51.987c5.21 1.513 7.007 19.366 5.51 53.5l-.24 43.514-16.709 4.781q-19.045 5.628-33.958-.666a45.491 45.491 0 0 0-13.415-2.9h-.419c-3.593-.242-5.21-3.631-4.791-10.167L-33.059.847c1.377-11.075 1.677-20.4.9-27.839a7.601 7.601 0 0 0-.18-.605c-2.755-11.62-1.2-19.487 4.791-23.6m.3-.061c14.673 4.357 33.419 4.055 56.237-1.029.24-.061.539-.121.779-.182" class="cls-49" data-name="Path 5793"/>
                <path id="Path_5794" d="M21.141-36.009Q20.512 2.027 2.1 27.234a162.993 162.993 0 0 0 19.041-63.243zm-35.634 20.576q-7.726 42.939 4.971 62.215-8.355-19.155-4.971-62.215z" class="cls-50" data-name="Path 5794"/>
            </g>
        </g>
        <g id="Group_3414" class="cls-51" data-name="Group 3414" transform="rotate(-2.194 4445.307 -3159.882)">
            <g id="Group_3411" class="cls-52" data-name="Group 3411" transform="translate(-12.721 3.526)">
                <g id="Layer_3_20_">
                    <path id="Path_5795" d="M-5.392-33.185c.064 0 .128.064.193.064 7.382 8.216 14.507 21.7 21.311 40.31 0 .064.642 1.541 1.926 4.493 5.712 12.26 4.556 20.218-3.596 23.878-.064 0-.128.064-.193.064C8.473 34.662 3.338 31.2-1.284 25.1l-.128-.321q-11.073-16.37-19.449-39.992c-2.76-18.229 2.439-24.263 15.469-17.972z" class="cls-6" data-name="Path 5795"/>
                    <path id="Path_5796" d="M-5.392-33.185c-13.094-6.29-18.23-.257-15.469 17.973C-15.277.514-8.794 13.8-1.412 24.841l.128.321c4.622 6.034 9.757 9.5 15.469 10.463.064 0 .128-.064.193-.064q12.228-5.488 3.595-23.878-1.83-4.333-1.926-4.43C9.307-11.426 2.182-24.905-5.2-33.121a.236.236 0 0 0-.192-.064z" class="cls-53" data-name="Path 5796"/>
                </g>
            </g>
            <g id="Group_3412" class="cls-54" data-name="Group 3412" transform="rotate(.201 -3261.603 1617.988)">
                <g id="Layer_3_19_">
                    <path id="Path_5797" d="M-3.6 27.425c-4.432-2.762-7.322-5.2-8.735-7.386s-2.248-3.533-2.633-4.239c-.321-.642-.257-3.211.257-7.579.45-4.367 3.661-10.019 9.634-16.892l-.257.257c1.991-2.89 3.34-7 4.046-12.2 7.322-10.276 12.717-9.12 16.057 3.533a32.992 32.992 0 0 0-1.924 15.604q-.193 10.309-4.239 15.8l-.642.963Q1.509 26.558-3.6 27.425z" class="cls-6" data-name="Path 5797"/>
                    <path id="Path_5798" d="M-14.708 8.285c.45-4.367 3.661-10.019 9.57-16.892l-.262.257c1.991-2.89 3.34-7 4.046-12.2 7.322-10.276 12.717-9.12 16.057 3.533a33.4 33.4 0 0 0-1.858 15.54q-.193 10.309-4.239 15.8l-.642.963Q1.413 26.558-3.6 27.425" class="cls-55" data-name="Path 5798"/>
                </g>
            </g>
            <g id="Group_3413" class="cls-56" data-name="Group 3413" transform="translate(19.074 -19.986)">
                <g id="Layer_3_7_">
                    <path id="Path_5799" d="M4.3-12.013l.064-.064c1.991-1.8 3.34-.964 3.983 2.57-.642-3.533-1.991-4.433-3.983-2.57a17.21 17.21 0 0 1 8.287-6.745c.128-.064.257-.064.385-.128 2.056-.578 2.634.064 1.8 1.927-.064.064-.064.193-.128.321a26.306 26.306 0 0 0-6.3 7.259l-.064.257h.642c1.67.9 2.12 1.991 1.413 3.276l-.193.257v.128c2.505.514 3.469 2.313 2.955 5.4 0 .128-.064.257-.064.385-.771 3.533-2.762 5.717-5.974 6.488l-.064-.064a.224.224 0 0 0-.128.064C3.662 8.608 1.349 12.72 0 19.144c-8.608-2.056-13.555-3.983-14.839-5.717l-.385-.064C-13.426 2.7-10.278-4.946-5.782-9.508c0-.064.064-.064.128-.128 2.184-1.028 4.882-3.276 8.094-6.681 1.349 1.285 1.863 2.7 1.413 4.111v.128a4.716 4.716 0 0 1-1.092 1.863zM2.7-4.368A4.814 4.814 0 0 1 3.019-5.4a3 3 0 0 1-.642.321C.642-4.433 0-5.2.45-7.516l2.12-2.441A14.964 14.964 0 0 1-.193-7.645 14.964 14.964 0 0 0 2.57-9.957L.45-7.516C0-5.2.642-4.433 2.377-5.075l.321.707C1.734-1.8 2.184-.9 4.047-1.606 2.184-.9 1.734-1.8 2.7-4.368zm.064-5.846l-.193.257zm7.386 4.625c-3.148.45-5.2 1.8-6.1 3.983a4.257 4.257 0 0 0-.067 1.542A2.1 2.1 0 0 0 6.36 1.863a5.075 5.075 0 0 0 4.3-2.313c-.385-1.028-1.156-1.092-2.377-.064 1.221-1.028 1.991-.964 2.377.064a4.867 4.867 0 0 1-4.3 2.313A2.014 2.014 0 0 1 3.983 0a4.563 4.563 0 0 1 .064-1.606C4.946-3.79 7-5.139 10.15-5.589zM3.019-5.4c1.092-2.63 2.827-3.915 5.332-3.786C5.91-9.315 4.111-8.03 3.019-5.4zM3.983 0C.128-.257-2.634.128-4.176 1.156-7 3.148-7.516 5.268-5.846 7.516-7.516 5.268-7 3.148-4.176 1.156-2.634.128.128-.257 3.983 0z" class="cls-6" data-name="Path 5799"/>
                    <path id="Path_5800" d="M4.368-12.077a17.21 17.21 0 0 1 8.287-6.745c.128-.064.257-.064.385-.128 2.056-.578 2.634.064 1.8 1.927-.064.064-.064.193-.128.321a26.306 26.306 0 0 0-6.3 7.259m-.064.257h.578c1.67.9 2.12 1.991 1.413 3.276m-.128.45c2.505.514 3.533 2.313 3.019 5.4 0 .128-.064.257-.064.385-.766 3.529-2.759 5.714-5.971 6.484l-.064-.064A.224.224 0 0 0 7 6.809c-3.34 1.8-5.653 5.91-7 12.334m-15.225-5.782C-13.426 2.7-10.278-4.946-5.782-9.508c0-.064.064-.064.128-.128 2.184-1.028 4.882-3.276 8.094-6.681 1.349 1.285 1.863 2.7 1.413 4.111v.128a4.716 4.716 0 0 1-1.092 1.863l1.542-1.8H4.24a.063.063 0 0 1 .064-.064m.064 0c1.991-1.8 3.34-.964 3.983 2.57M4.3-12.013l.064-.064m-1.991 7C.642-4.433 0-5.2.45-7.516l2.12-2.441A14.964 14.964 0 0 1-.193-7.645m2.955-2.57l-.193.257m.131 5.59A4.814 4.814 0 0 1 3.019-5.4a3 3 0 0 1-.642.321m7.773-.514c-3.148.45-5.2 1.8-6.1 3.983a4.257 4.257 0 0 0-.067 1.546A2.1 2.1 0 0 0 6.36 1.863a5.075 5.075 0 0 0 4.3-2.313c-.385-1.028-1.156-1.092-2.377-.064M2.7-4.368C1.734-1.8 2.184-.9 4.047-1.606M3.019-5.4c1.092-2.63 2.827-3.915 5.332-3.786M3.983 0C.128-.257-2.634.128-4.176 1.156-7 3.148-7.516 5.268-5.846 7.516" class="cls-57" data-name="Path 5800"/>
                </g>
            </g>
        </g>
        <g id="Group_3416" class="cls-58" data-name="Group 3416" transform="translate(112.434 155.315)">
            <g id="Group_3415" data-name="Group 3415">
                <path id="Path_5801" d="M2.611 12.464Q-8.695.267-5.1-18.458l.059-.119A95.739 95.739 0 0 1 13.354-3.5c1.068.653 1.306 1.662.653 3.086a36.922 36.922 0 0 1-7.182 9.376C5.579 9.021 4.155 8.309 2.552 7c1.548 2.2 1.959 3.742 1.187 4.692a12.709 12.709 0 0 0-1.128.772zM-9.14-21.069l.059-.119.415.3zm-4.392 41.96l.475-.059-.475.059z" class="cls-36" data-name="Path 5801"/>
                <path id="Path_5802" d="M-13.057 20.832l-.475.059q-3.383-18.428 3.324-39.824l1.068-2.137.475.237c1.246.712 2.433 1.484 3.62 2.255l-.059.119c-2.374 12.465.237 22.732 7.775 30.923a92.815 92.815 0 0 1-15.728 8.368z" class="cls-28" data-name="Path 5802"/>
                <path id="Path_5803" d="M-5.045-18.577A95.739 95.739 0 0 1 13.354-3.5c1.068.653 1.306 1.662.653 3.086a36.922 36.922 0 0 1-7.182 9.376C5.579 9.021 4.155 8.309 2.552 7c1.548 2.2 1.959 3.742 1.187 4.692a12.709 12.709 0 0 0-1.128.772 88.378 88.378 0 0 1-15.728 8.368m4.451-41.664c1.246.712 2.433 1.484 3.62 2.255" class="cls-59" data-name="Path 5803"/>
                <path id="Path_5804" d="M-13.532 20.951c-2.255-12.345-1.128-25.58 3.324-39.824l1.068-2.137.059-.119" class="cls-60" data-name="Path 5804"/>
            </g>
        </g>
        <g id="Group_3418" class="cls-61" data-name="Group 3418" transform="translate(73.001 156.887)">
            <g id="Group_3417" data-name="Group 3417">
                <path id="Path_5805" d="M31.81 23.1Q20.831 18.037 7.938-12.327c2.365-.065 3.885-4.023 4.448-11.808v-.324a32.067 32.067 0 0 1 .394-6.164q4.054 1.265 7.263 2.53a44.47 44.47 0 0 1 9.965 5.126 13.125 13.125 0 0 1 3.1 3.049c3.206 7.591 2.755 21.994-1.298 43.018zM-9.852-29.715l-.45.195.45-.195zM12.5-39.382c.056-.195-.113-.324-.338-.454l.507-1.3a1.792 1.792 0 0 1 .338.195 3.074 3.074 0 0 1 1.576 1.492 1.519 1.519 0 0 1-2.083.067z" class="cls-27" data-name="Path 5805"/>
                <path id="Path_5806" d="M-10.3-29.52l.45-.195a39.257 39.257 0 0 1 1.63 5.774.437.437 0 0 0 .056.26C-6.925-12.262-3.209-9.6 2.984-15.766a49.436 49.436 0 0 1-1.858-4.412c-.394-.908-.732-1.882-1.07-2.855Q-1.971-28.58-3.66-34.711A14.441 14.441 0 0 1-7.882-36.2a2.424 2.424 0 0 1-.394-.324.818.818 0 0 1-.338-.649l-2.7-.065a5.38 5.38 0 0 1 .732-.908 4.93 4.93 0 0 1 .563-.454A27.1 27.1 0 0 1-.9-42.172a26.619 26.619 0 0 1 12.33.584 5.55 5.55 0 0 1 .957.324.408.408 0 0 1 .225.13l-.507 1.3a5.385 5.385 0 0 0-1.013-.324 2.158 2.158 0 0 1-.281-.065 23.179 23.179 0 0 0-11.6-.843 19.547 19.547 0 0 0-6.361 2.333 3.575 3.575 0 0 0-.45.195 2.174 2.174 0 0 0-1.07.908.936.936 0 0 0-.056.389.936.936 0 0 1 .056-.389 1.756 1.756 0 0 1 1.07-.908 3.575 3.575 0 0 1 .45-.195 21 21 0 0 1 6.306-2.4 23.179 23.179 0 0 1 11.6.843 2.158 2.158 0 0 1 .281.065 1.97 1.97 0 0 1 1.013.324c.281.13.394.26.338.454a1.145 1.145 0 0 1-.676.714 4.566 4.566 0 0 0-1.295 1.1A8.323 8.323 0 0 1 7.544-36.2c-.788 5.061-1.52 8.694-2.083 10.965-.619 2.271-1.013 3.7-1.182 4.477a2.142 2.142 0 0 0-.113.584c-.394 1.622-.788 3.114-1.239 4.412 2.14 2.332 3.773 3.435 5.011 3.435Q20.859 18.037 31.81 23.1a2.261 2.261 0 0 1-.113.519v.13a105.91 105.91 0 0 0-1.295 10.511Q-1.013 51-29.9 34.062a45.1 45.1 0 0 0-.619-14.274v-.324a136.1 136.1 0 0 1-4.617-38.733 68.948 68.948 0 0 1 6.193-3.763 64.593 64.593 0 0 1 12.611-5c1.919-.58 3.946-1.034 6.032-1.488zM2.984-15.766c0 .065 0 .065-.056.065 0 0 0-.065-.056-.065l.056.065c.056.001.056-.065.056-.065z" class="cls-28" data-name="Path 5806"/>
                <path id="Path_5807" d="M12.836-30.688q4.054 1.265 7.263 2.53a42.69 42.69 0 0 1 9.909 5.126 13.125 13.125 0 0 1 3.1 3.049q4.81 11.483-1.299 43.015a2.261 2.261 0 0 1-.113.519v.13a105.91 105.91 0 0 0-1.295 10.511q-31.415 16.836-60.3-.13a45.1 45.1 0 0 0-.619-14.274v-.324a136.1 136.1 0 0 1-4.617-38.733 68.948 68.948 0 0 1 6.193-3.763 64.593 64.593 0 0 1 12.611-5 60.564 60.564 0 0 1 6.08-1.492M-11.321-37.18a5.38 5.38 0 0 1 .732-.908 4.93 4.93 0 0 1 .563-.454A27.1 27.1 0 0 1-.9-42.107a26.619 26.619 0 0 1 12.33.584 5.55 5.55 0 0 1 .957.324.408.408 0 0 1 .225.13 1.792 1.792 0 0 1 .338.195 3.074 3.074 0 0 1 1.576 1.492m-23.14 2.271a.936.936 0 0 1 .056-.389 1.756 1.756 0 0 1 1.07-.908 3.575 3.575 0 0 1 .45-.195A21 21 0 0 1-.732-41a23.179 23.179 0 0 1 11.6.843 2.158 2.158 0 0 1 .281.065 1.97 1.97 0 0 1 1.013.324m.338.389c.056-.195-.113-.324-.338-.454M2.984-15.766c0 .065 0 .065-.056.065 0 0 0-.065-.056-.065" class="cls-62" data-name="Path 5807"/>
            </g>
        </g>
        <g id="XMLID_1_">
            <g id="Group_3431" class="cls-63" data-name="Group 3431" transform="translate(76.131 71.156)">
                <g id="Layer_3_49_">
                    <path id="Path_5808" d="M27.888-39.3A15.312 15.312 0 0 0 24-42.511a5.772 5.772 0 0 0-3.208-.8 11.152 11.152 0 0 0-3.147.494 2.064 2.064 0 0 0-1.6 1.974c-.062.864.309 1.357 1.049 1.419a9.853 9.853 0 0 0 2.776.062 17.561 17.561 0 0 1 6.047 1.111c2.712.923 3.39.551 1.971-1.049zM-45.535-.247q-6.941-10.921-2.345-31.22c5.491-14.5 18.7-23.569 39.611-27.086 17.461-2.345 31.035.987 40.845 10a.468.468 0 0 0 .247.123c8.576 7.4 13.821 17.4 15.61 29.863 0 .062 0 .062.062.123l.062-.185c.247 6.17-1.666 13.08-5.8 20.793a22.778 22.778 0 0 0-2.467 4.253 42.808 42.808 0 0 0-3.89 14.314.852.852 0 0 0-.185.247 2.42 2.42 0 0 0-.309.8c-1.971 5.678-8.758 10.922-20.358 15.674-3.332.925-5.676 2.591-6.972 5.059Q-2.159 53.8-10.366 41.524a6.311 6.311 0 0 0-.494-1.3c-.864-1.913-4.257-3.764-10.18-5.615q-9.717-3.509-13.882-12.027a5.4 5.4 0 0 0-.494-.617l-.185-.185-7.281-17.646a12.338 12.338 0 0 0-2.653-4.381zm21.04-37.082q1.018-.278.74-1.481c-.185-.8-.864-1.3-1.974-1.481a12.9 12.9 0 0 0-3.085 0 5.477 5.477 0 0 0-2.9 1.111 10.843 10.843 0 0 0-2.962 3.455q-1.573 2.5 2.036.74a16.711 16.711 0 0 1 5.43-1.851 10.718 10.718 0 0 0 2.715-.492zM25.05 1.666l.185.617 1.111-.37a5.758 5.758 0 0 1 1.354-.247.215.215 0 0 0 .123-.062h.123a10.458 10.458 0 0 1 1.357-.062h.185a9.7 9.7 0 0 1 1.419.247 9.258 9.258 0 0 1 4.2 2.406 4.163 4.163 0 0 1 1.111 2.468v.247a12.07 12.07 0 0 1-1.172 4.69 12.325 12.325 0 0 0 1.172-4.69v-.246A3.549 3.549 0 0 0 35.107 4.2a9.183 9.183 0 0 0-4.134-2.345 5.256 5.256 0 0 0-1.419-.255h-.185a3.409 3.409 0 0 0-1.357.062L27.765.74a.877.877 0 0 1 .37-.123c.062 0 .123-.062.185-.062h-.555V.8l-1.974.679h-2.16a1.907 1.907 0 0 1-.494.123c-1.049.247-2.16.494-3.27.679v.679a49.717 49.717 0 0 0 3.394-.74 15.163 15.163 0 0 1 1.789-.554zM3.887 5c0-.062-.062-.062-.062-.123-1.666-1.974-3.332-2.9-5-2.715l-.123-.37-.123.432A7.026 7.026 0 0 0-5.43 5c-.062.062-.123.123-.123.185a18.062 18.062 0 0 0-1.172 1.6 1.291 1.291 0 0 1-.247.37c-1.3 2.776-.37 4.257 2.653 4.5l7.466-.617c.123 0 .185-.062.308-.062q4.442-1.2 1.111-5c0-.185-.123-.247-.185-.37A5.4 5.4 0 0 0 3.887 5zm26.84-1.853a6.24 6.24 0 0 0-1.42-.247 2.06 2.06 0 0 0-.925.185.215.215 0 0 0-.123.062c-.123.062-.247.185-.37.247a1.107 1.107 0 0 0-.309.432 2.158 2.158 0 0 0 .432 2.1 5.611 5.611 0 0 0 1.111 1.3c.37.309.74.555 1.172.864a6.076 6.076 0 0 0 2.9.8 2.024 2.024 0 0 0 1.851-.925 1.353 1.353 0 0 0 .123-.987 2.936 2.936 0 0 0-.494-1.111 6.608 6.608 0 0 0-2.406-2.036 6.553 6.553 0 0 0-1.542-.684zM18.942 5.059a43.228 43.228 0 0 1 6.293-2.838 43.228 43.228 0 0 0-6.293 2.838zm-41.216.555a8.42 8.42 0 0 0-3.764-2.406 12.663 12.663 0 0 0-4.936-.555 16.951 16.951 0 0 0-2.1.617c-.494.185-.925.37-1.357.494a.06.06 0 0 0-.062.062 7.658 7.658 0 0 0-3.764 3.023c-1.172 2.036-.8 4.566 1.111 7.713-1.913-3.147-2.221-5.676-1.111-7.713a7.343 7.343 0 0 1 3.767-3.024l.062-.062V3.7a12 12 0 0 1 1.357-.494 16.951 16.951 0 0 1 2.1-.617 12.522 12.522 0 0 1 4.936.555 10.243 10.243 0 0 1 3.761 2.471zm-10.55-1.48a5.772 5.772 0 0 0-1.357.432 8.3 8.3 0 0 0-1.357.864 7.125 7.125 0 0 0-1.852 2.036.468.468 0 0 0-.123.247 2.107 2.107 0 0 0 0 2.1 2.042 2.042 0 0 0 1.974.555 6.416 6.416 0 0 0 2.9-1.172 6.918 6.918 0 0 0 1.974-2.345 2.09 2.09 0 0 0 0-2.1 2.086 2.086 0 0 0-2.159-.617zm22.459-1.111l.062-.062-.062-.062zM18.757 29.8a.6.6 0 0 0 .247.555 1.057 1.057 0 0 0 1.357 0 .6.6 0 0 0 .247-.555.792.792 0 0 0-.247-.617 1.337 1.337 0 0 0-1.357 0 .792.792 0 0 0-.247.617z" class="cls-6" data-name="Path 5808"/>
                    <path id="Path_5809" d="M25.791 1.419c-.247.062-.494.185-.74.247-.617.185-1.234.37-1.789.494a49.23 49.23 0 0 1-3.393.74v-.617a27.993 27.993 0 0 0 3.27-.74c.185-.062.309-.062.494-.123zM27.765.74V.494h.555c-.062 0-.123.062-.185.062zM-10.3 2.962l-.062.062V2.9zM18.757 29.8a.792.792 0 0 1 .243-.616 1.337 1.337 0 0 1 1.357 0 .792.792 0 0 1 .247.617.6.6 0 0 1-.247.555 1.057 1.057 0 0 1-1.357 0 .754.754 0 0 1-.243-.556z" class="cls-64" data-name="Path 5809"/>
                    <path id="Path_5810" d="M30.727 3.147a7.07 7.07 0 0 1 1.419.617A6.608 6.608 0 0 1 34.552 5.8a2.124 2.124 0 0 1 .494 1.111 1.759 1.759 0 0 1-.123.987c-.247.555-.864.864-1.851.987a6.262 6.262 0 0 1-2.9-.8c-.432-.247-.8-.555-1.172-.8a5.612 5.612 0 0 1-1.111-1.3 2.07 2.07 0 0 1-.432-2.036 1.107 1.107 0 0 1 .309-.432 1.291 1.291 0 0 1 .37-.247.215.215 0 0 0 .123-.062 2.349 2.349 0 0 1 .987-.185 3.038 3.038 0 0 1 1.481.124zm-63.551.987a1.767 1.767 0 0 1 1.974.555 2.09 2.09 0 0 1 0 2.1 6.918 6.918 0 0 1-1.974 2.345 5.792 5.792 0 0 1-2.9 1.172 1.928 1.928 0 0 1-1.913-.555 1.992 1.992 0 0 1 0-2.036.468.468 0 0 0 .123-.247 7.125 7.125 0 0 1 1.851-2.038 12.133 12.133 0 0 1 1.357-.864 5.53 5.53 0 0 1 1.482-.432z" class="cls-65" data-name="Path 5810"/>
                    <path id="Path_5811" d="M-45.535-.247q-6.941-10.921-2.345-31.22c5.491-14.5 18.7-23.569 39.611-27.086 17.461-2.345 31.035.987 40.845 10a.468.468 0 0 0 .247.123c8.576 7.4 13.821 17.4 15.61 29.863 0 .062 0 .062.062.123l.062-.185c.247 6.17-1.666 13.08-5.8 20.793m-6.663 18.752a2.42 2.42 0 0 0-.308.8c-1.851 5.74-8.638 10.984-20.238 15.736-3.332.925-5.676 2.591-6.972 5.059m-43.992-20.546c.123.185.308.37.494.617q4.165 8.518 13.882 12.032c5.923 1.851 9.317 3.7 10.181 5.615a5.714 5.714 0 0 1 .494 1.234" class="cls-66" data-name="Path 5811"/>
                    <path id="Path_5812" d="M36.341 20.67a.852.852 0 0 0-.185.247M8.576 42.511h.37M28.012 1.6a10.458 10.458 0 0 1 1.357-.062h.185a9.7 9.7 0 0 1 1.419.247 9.258 9.258 0 0 1 4.2 2.406 4.163 4.163 0 0 1 1.107 2.473v.246a12.07 12.07 0 0 1-1.173 4.69m-9.872-9.317l1.111-.37a5.758 5.758 0 0 1 1.354-.247.215.215 0 0 0 .123-.062h.123m-9.004 3.455a43.228 43.228 0 0 1 6.293-2.838M-35.6 21.78l.185.185m13.142-16.35a8.42 8.42 0 0 0-3.764-2.406 12.663 12.663 0 0 0-4.936-.555 16.951 16.951 0 0 0-2.1.617c-.494.185-.925.37-1.357.494a.06.06 0 0 0-.062.062 7.658 7.658 0 0 0-3.764 3.023c-1.172 2.036-.8 4.566 1.111 7.713m26.779-11.54l.062-.062m8.885-.74c.062 0 .123-.062.185-.062" class="cls-67" data-name="Path 5812"/>
                </g>
                <g id="Group_3421" class="cls-68" data-name="Group 3421" transform="translate(-.697 -7.684)">
                    <g id="Group_3419" class="cls-69" data-name="Group 3419" transform="translate(23.377 -.215)">
                        <g id="Layer_3_43_">
                            <path id="Path_5813" d="M-5.943-7.614c-.186.124-.433.248-.619.371a21.583 21.583 0 0 0-1.919 1.115 3.434 3.434 0 0 0-.371.5 13.068 13.068 0 0 0-1.114 1.666 17.687 17.687 0 0 0-2.352 12.69l-.619.062C-14.114 4.767-13.5.5-11.081-3.962c.31-.619.681-1.238 1.052-1.919.062-.124.186-.186.248-.31l.124-.124a2.86 2.86 0 0 1 .433-.433c.124-.186.31-.31.433-.5 5.077-4.823 11.577-5.252 19.438-1.233.186.062.371.186.557.248a3.559 3.559 0 0 1 1.919 3.281 4.385 4.385 0 0 1-.062.867 19.717 19.717 0 0 1-.561 1.918A35.137 35.137 0 0 1 9.657 4.4c-.31.5-.619.929-.929 1.362a7.321 7.321 0 0 1-2.661 2.409 4.7 4.7 0 0 1-.681.248h-.372v.248c-.062 0-.124.062-.186.062a.216.216 0 0 0-.128.061l-1.671.557h-2.1a25.319 25.319 0 0 0 2.6-.99 7.39 7.39 0 0 0 .99-.5l.124-.057a.216.216 0 0 0 .124-.062c.062 0 .062-.062.124-.062q1.109-.65 2.042-1.3l.367-.557c.248-.5.5-.929.681-1.362 1.919-3.714 2.852-6.5 2.852-8.419a3.807 3.807 0 0 0-.062-.867 3.059 3.059 0 0 0-.5-1.114c-.062-.062-.062-.124-.124-.124C5.7-10.276.31-10.771-5.943-7.614zm7.429 3.466a1.353 1.353 0 0 0-.31-.186 1.693 1.693 0 0 0-.866-.247 1.476 1.476 0 0 0-.867.371q-.464.371-1.3 1.114c-.557.433-.5.681.248.619A4.129 4.129 0 0 0 .186-3.1a5.989 5.989 0 0 1 1.548-.867zm-4.4 14.981c-.681.124-1.362.248-1.981.31a16.944 16.944 0 0 1-2.476.062 10.316 10.316 0 0 1-3.652-.743h-.062l.248-.557a7.37 7.37 0 0 0 2.6.557l.248.062h.689c.867-.062 1.671-.062 2.476-.124.681-.062 1.362-.186 1.981-.248l-.062.681zM-5.943-6.314a1.853 1.853 0 0 1 .5-.248 5.853 5.853 0 0 1 2.538-.557 5.552 5.552 0 0 1 4.576 2.352A8.451 8.451 0 0 1 3.652.867 8.451 8.451 0 0 1 1.671 6.5a5.72 5.72 0 0 1-4.58 2.352A5.856 5.856 0 0 1-7.614 6.5 8.737 8.737 0 0 1-9.533.867a8.519 8.519 0 0 1 1.919-5.634 5.607 5.607 0 0 1 1.671-1.547z" class="cls-64" data-name="Path 5813"/>
                            <path id="Path_5814" d="M-10.833 9.966a3.09 3.09 0 0 1-1.486-1.3 17.687 17.687 0 0 1 2.353-12.69 9.347 9.347 0 0 1 1.114-1.609c.124-.186.248-.31.371-.5a15.344 15.344 0 0 1 1.919-1.11l.619.929a6.282 6.282 0 0 0-1.671 1.486A8.737 8.737 0 0 0-9.533.8a8.407 8.407 0 0 0 1.919 5.638 5.949 5.949 0 0 0 4.7 2.352 5.474 5.474 0 0 0 4.585-2.352A8.355 8.355 0 0 0 3.59.867a8.567 8.567 0 0 0-1.981-5.634 5.72 5.72 0 0 0-4.58-2.352 5.853 5.853 0 0 0-2.538.557l-.5-.99C.248-10.709 5.633-10.214 10.09-6.128c.062 0 .062.062.124.124a3.059 3.059 0 0 1 .5 1.114 3.807 3.807 0 0 1 .062.867c0 1.919-.929 4.7-2.848 8.419a9.319 9.319 0 0 0-.681 1.362l-.371.557A12.343 12.343 0 0 1 4.89 7.676c-.062 0-.062.062-.124.062a.192.192 0 0 1-.124.062l-.124.062c-.31.186-.681.31-.99.5-.867.371-1.733.681-2.6.99a1.807 1.807 0 0 1-.557.124 19.287 19.287 0 0 1-3.281.681c-.619.062-1.3.186-1.981.248-.8.062-1.609.124-2.476.124h-.681l-.248-.062a6.177 6.177 0 0 1-2.537-.501zM1.486-4.148l.31.124c-.681.31-1.238.619-1.671.867a4.129 4.129 0 0 1-1.8.619q-1.021.093-.186-.557.836-.743 1.3-1.114a1.445 1.445 0 0 1 .871-.434 1.643 1.643 0 0 1 .867.31 1.353 1.353 0 0 1 .309.185z" class="cls-10" data-name="Path 5814"/>
                            <path id="Path_5815" d="M-5.943-7.614C.31-10.771 5.7-10.276 10.152-6.19c.062 0 .062.062.124.124a3.059 3.059 0 0 1 .5 1.114 3.807 3.807 0 0 1 .062.867c0 1.919-.929 4.7-2.848 8.419A9.319 9.319 0 0 0 7.3 5.7l-.371.557A12.022 12.022 0 0 1 4.89 7.676c-.062 0-.062.062-.124.062a.192.192 0 0 1-.124.062l-.124.062c-.31.186-.681.31-.99.5-.867.371-1.733.681-2.6.99a1.807 1.807 0 0 1-.557.124 19.287 19.287 0 0 1-3.281.681c-.619.062-1.3.186-1.981.248-.8.062-1.609.124-2.476.124h-.681l-.248-.062A7.37 7.37 0 0 1-10.9 9.9a3.09 3.09 0 0 1-1.486-1.3 17.687 17.687 0 0 1 2.352-12.69 9.347 9.347 0 0 1 1.12-1.61c.124-.186.248-.31.371-.5a15.344 15.344 0 0 1 1.919-1.1 2.288 2.288 0 0 0 .681-.314zM3.033 9.347q.743-.278 1.667-.557a.216.216 0 0 1 .124-.062c.062 0 .124-.062.186-.062h.062m.5-.186c.248-.062.5-.186.681-.248a8.651 8.651 0 0 0 2.661-2.413c.31-.433.619-.867.929-1.362A31.834 31.834 0 0 0 12.69-2.1a13.1 13.1 0 0 0 .557-1.919 4.385 4.385 0 0 0 .062-.867 3.437 3.437 0 0 0-1.919-3.285 2.2 2.2 0 0 0-.557-.248C2.971-12.443-3.529-12.009-8.6-7.181a3.539 3.539 0 0 0-.433.5 2.86 2.86 0 0 0-.433.433l-.124.124a1.087 1.087 0 0 0-.248.31A14.723 14.723 0 0 0-10.9-3.9C-13.314.619-14 4.89-12.757 8.852m18.328-.371c-.062 0-.124.062-.248.062-.124.062-.186.062-.31.124m-7.924 2.167a48.86 48.86 0 0 0 3.4-.743c.557-.124 1.176-.31 1.8-.5.248-.062.5-.186.743-.248m-14.114 1.114h.062a10.316 10.316 0 0 0 3.652.743c.743 0 1.609 0 2.476-.062.619-.062 1.3-.186 1.981-.31m-8.171-.371h-.062a4.282 4.282 0 0 1-1.546-1.171 1.457 1.457 0 0 1-.124-.5v-.058" class="cls-70" data-name="Path 5815"/>
                        </g>
                    </g>
                    <g id="Group_3420" class="cls-71" data-name="Group 3420" transform="translate(-22.646 .281)">
                        <g id="Layer_3_44_">
                            <path id="Path_5816" d="M5.611-3.576q-.462.37-1.295 1.11-.832.647.185.555a4.113 4.113 0 0 0 1.788-.617 12.9 12.9 0 0 1 1.6-.8l-.308-.123a1.348 1.348 0 0 0-.308-.185 1.686 1.686 0 0 0-.863-.247 1.02 1.02 0 0 0-.799.307zM7.275-4.5a8.418 8.418 0 0 1 1.974 5.61 8.7 8.7 0 0 1-1.912 5.611 5.7 5.7 0 0 1-4.562 2.343A9.2 9.2 0 0 1 1.48 8.94a6.041 6.041 0 0 1-3.33-2.158A8.66 8.66 0 0 1-3.7 1.171a8.779 8.779 0 0 1 1.85-5.61 5.452 5.452 0 0 1 4.563-2.343A5.633 5.633 0 0 1 7.275-4.5zm5.8 14.8l-.555-.863-.062-.062c.062-.987.123-1.911.123-2.836 0-6.659-1.788-11.16-5.364-13.38-7.649-3.949-13.817-3.702-18.377.86v.308c-.432 3.268.37 6.844 2.466 10.79 2.343 2.59 5.611 4.193 9.927 4.809.863.123 1.726.185 2.651.247h1.48v.927H3.823a29.88 29.88 0 0 1-6.474-.863 21.73 21.73 0 0 1-4.254-1.6L-8.2 7.892c-2.96-1.973-4.871-5.919-5.8-11.776v-.432a2.161 2.161 0 0 1 .062-1.541 4.573 4.573 0 0 1 .617-.987 6.062 6.062 0 0 1 .925-.74c5.487-4.069 12.023-4.624 19.607-1.6 5.118 2.466 7.337 8.139 6.721 17.079v.247c0 .247-.062.432-.062.678a2.82 2.82 0 0 1-.799 1.48zm-7.707.8l-.068-.927a58.57 58.57 0 0 0 6.906-.555l.308-.185.493.74v.127a.227.227 0 0 1-.185.062c-.123.062-.185.123-.308.123H11.9a35.865 35.865 0 0 1-6.536.615z" class="cls-64" data-name="Path 5816"/>
                            <path id="Path_5817" d="M5.611-3.576a1.439 1.439 0 0 1 .863-.432 2.647 2.647 0 0 1 .863.247 1.348 1.348 0 0 1 .308.185l.247.123c-.617.308-1.171.555-1.6.8a4.113 4.113 0 0 1-1.792.618c-.678.185-.74 0-.185-.432q.833-.739 1.296-1.109zM7.275-4.5a5.633 5.633 0 0 0-4.562-2.282A5.947 5.947 0 0 0-1.973-4.5a8.66 8.66 0 0 0-1.85 5.61 8.66 8.66 0 0 0 1.85 5.611 5.919 5.919 0 0 0 3.329 2.158A9.2 9.2 0 0 0 2.651 9a5.53 5.53 0 0 0 4.563-2.341A8.114 8.114 0 0 0 9.249 1.11 8.418 8.418 0 0 0 7.275-4.5zm4.933 14.118a46.5 46.5 0 0 1-6.906.555c-.493 0-.987-.062-1.48-.062-.925-.062-1.788-.123-2.651-.247-4.254-.617-7.584-2.22-9.927-4.809-2.1-3.946-2.9-7.522-2.466-10.79v-.308c4.563-4.5 10.728-4.809 18.374-.863q5.364 3.329 5.364 13.318c0 .925-.062 1.85-.123 2.836l.062.062z" class="cls-10" data-name="Path 5817"/>
                            <path id="Path_5818" d="M13.071 10.3a2.82 2.82 0 0 0 .8-1.48 2.312 2.312 0 0 0 .062-.678v-.25c.678-8.94-1.541-14.613-6.721-17.079-7.584-3.021-14.119-2.528-19.545 1.6a3.02 3.02 0 0 0-.925.74 3.414 3.414 0 0 0-.617.987A2.139 2.139 0 0 0-14-4.316v.37c.925 5.919 2.836 9.865 5.8 11.776a13.854 13.854 0 0 0 1.295.74 21.73 21.73 0 0 0 4.254 1.6 29.88 29.88 0 0 0 6.474.863 12.888 12.888 0 0 0 1.541.062h.062A48.687 48.687 0 0 0 11.9 10.6h.617c.123 0 .185-.062.308-.123.062 0 .123-.062.185-.062m-7.645-.185H3.884c-.925-.062-1.788-.123-2.651-.247-4.254-.617-7.584-2.22-9.927-4.809-2.1-3.946-2.9-7.522-2.466-10.79v-.308C-6.6-10.42-.432-10.728 7.214-6.782q5.364 3.329 5.364 13.318c0 .925-.062 1.85-.123 2.836m-.247.247a46.5 46.5 0 0 1-6.906.555" class="cls-72" data-name="Path 5818"/>
                        </g>
                    </g>
                </g>
                <g id="Group_3422" class="cls-73" data-name="Group 3422" transform="translate(48.002 11.161)">
                    <g id="Layer_3_45_">
                        <path id="Path_5819" d="M-7.959-4.689a.215.215 0 0 1 .059-.124 24.282 24.282 0 0 1 2.468-4.2q3.7-5.275 12.587-4.628c.062 0 .123.062.247.062q3.98 1.758 4.257 8.329c0 .925 0 1.913-.062 3.085a24.86 24.86 0 0 1-4.131 8.952.06.06 0 0 0-.062.062c-.062.062-.062.062-.062.123a25.731 25.731 0 0 1-5.553 5.059q-8.052 4.258-11.476-2.406c-.062-.062-.123-.123-.185-.123a1.478 1.478 0 0 0-1.789-.062A41.947 41.947 0 0 1-7.959-4.689zM-3.085 5l-.494.37a8.7 8.7 0 0 1-1.111.864q-3.147 2.684-.74 4.442c1.789.617 3.949.185 6.664-1.3a16.451 16.451 0 0 0 4.381-3.823 19.762 19.762 0 0 0 3.331-9.872l.062.432a9.112 9.112 0 0 0-.062-1.3c-.123-2.776-.864-4.566-2.221-5.306a8.36 8.36 0 0 0-4.134.993 13.556 13.556 0 0 0-5.676 5.8C-.432-4.566.74-3.208.494.247.308 1.543-.864 3.147-3.085 5zm-1.357-6.049A21.263 21.263 0 0 1-3.085-3.7a17.856 17.856 0 0 0-1.357 2.651z" class="cls-6" data-name="Path 5819"/>
                        <path id="Path_5820" d="M2.53-9.44a9.238 9.238 0 0 1 4.134-.925c1.357.74 2.1 2.468 2.283 5.306 0 .37.062.8.062 1.3v-.555a20.4 20.4 0 0 1-3.394 9.867 13.834 13.834 0 0 1-4.381 3.825q-3.98 2.221-6.664 1.3-2.406-1.758.74-4.442a8.7 8.7 0 0 0 1.111-.864L-3.085 5a11.012 11.012 0 0 0 5-3.332c.43-.496.862-.989 1.355-1.545a.852.852 0 0 1 .185-.247l.123-.123C6.54-4.751 6.108-7.774 2.53-9.44z" class="cls-74" data-name="Path 5820"/>
                        <path id="Path_5821" d="M2.53-9.44C6.17-7.774 6.478-4.689 3.579-.247a.133.133 0 0 0-.123.123L3.27.062a18.461 18.461 0 0 1-1.357 1.6A11.012 11.012 0 0 1-3.085 5C-.864 3.147.308 1.543.432.247.74-3.208-.432-4.5-3.085-3.7A13.266 13.266 0 0 1 2.53-9.44z" class="cls-75" data-name="Path 5821"/>
                        <path id="Path_5822" d="M-7.9-4.813a24.282 24.282 0 0 1 2.468-4.2q3.7-5.275 12.587-4.628c.062 0 .123.062.247.062q3.98 1.758 4.257 8.329c0 .925 0 1.913-.062 3.085a24.86 24.86 0 0 1-4.131 8.952.06.06 0 0 0-.062.062c-.062.062-.062.062-.062.123a25.731 25.731 0 0 1-5.553 5.059q-8.052 4.258-11.476-2.406c-.062-.062-.123-.123-.185-.123a1.478 1.478 0 0 0-1.789-.062" class="cls-66" data-name="Path 5822"/>
                        <path id="Path_5823" d="M-7.959-4.689a.215.215 0 0 1 .059-.124M2.53-9.44C6.17-7.774 6.478-4.689 3.579-.247a.133.133 0 0 0-.123.123L3.27.062a18.461 18.461 0 0 1-1.357 1.6A11.012 11.012 0 0 1-3.085 5l-.494.37a8.7 8.7 0 0 1-1.111.864q-3.147 2.684-.74 4.442c1.789.617 3.949.185 6.664-1.3a16.451 16.451 0 0 0 4.381-3.823 19.762 19.762 0 0 0 3.331-9.872l.062.432a9.112 9.112 0 0 0-.062-1.3c-.123-2.776-.864-4.566-2.221-5.306A9.378 9.378 0 0 0 2.53-9.44zm-6.972 8.391A21.263 21.263 0 0 1-3.085-3.7 14.161 14.161 0 0 1 2.53-9.5M-3.085 5C-.864 3.147.308 1.543.432.247.74-3.208-.432-4.5-3.085-3.7" class="cls-67" data-name="Path 5823"/>
                    </g>
                </g>
                <g id="Group_3423" class="cls-76" data-name="Group 3423" transform="translate(-47.632 11.983)">
                    <g id="Layer_3_46_">
                        <path id="Path_5824" d="M5.059-7.281l7.034 17.153c-1.111-1.049-2.345-.74-3.764.74a2.829 2.829 0 0 1-1.6 2.715 11.837 11.837 0 0 1-5.676 1.111c-5.862-.617-9.749-3.455-11.723-8.576a28.632 28.632 0 0 1-.74-2.9v-.124a29.043 29.043 0 0 1-.617-5.8 18.686 18.686 0 0 1 .123-1.913 12.845 12.845 0 0 1 4.257-8.083c4.072-1.974 7.342-1.728 9.81.8a12.922 12.922 0 0 1 2.65 4.384zM2.345 4.689a8.94 8.94 0 0 1-4.5-3.27C-3.64-.432-2.468-3.147 1.3-6.787a12.889 12.889 0 0 1 1.847 2.468 5.345 5.345 0 0 1 .432 2.838 5.345 5.345 0 0 0-.432-2.838A16.08 16.08 0 0 0 1.3-6.787 10.8 10.8 0 0 0-.74-8.515a11.894 11.894 0 0 0-2.345-1.172c-.062 0-.185-.062-.247-.062-1.789-.37-3.023-.185-3.7.494-.987.617-1.728 2.16-2.221 4.566a.215.215 0 0 0-.062-.123l-.062.432c0-.062.062-.123.062-.247a25.991 25.991 0 0 0 .37 7.157c.679 3.332 2.221 5.553 4.566 6.725 3.825 1.728 6.725 1.974 8.761.617a3.686 3.686 0 0 0 .926-1.111.06.06 0 0 1 .06-.061c.432-1.234-.432-2.53-2.591-3.949a.915.915 0 0 1-.432-.062z" class="cls-6" data-name="Path 5824"/>
                        <path id="Path_5825" d="M2.345 4.689C-1.481 5.8-4.134 4.5-5.8.679c-1.728-3.949-.8-7.4 2.715-10.366A9.265 9.265 0 0 1-.74-8.515 13.155 13.155 0 0 1 1.3-6.787c-3.768 3.64-4.94 6.355-3.521 8.206a9.34 9.34 0 0 0 4.566 3.27z" class="cls-75" data-name="Path 5825"/>
                        <path id="Path_5826" d="M-3.085-9.687C-6.6-6.725-7.466-3.27-5.8.679c1.6 3.763 4.319 5.121 8.145 4.01.123.062.309.062.37.123 2.16 1.419 3.023 2.715 2.591 3.949l-.062.062a4.527 4.527 0 0 1-.864 1.111c-2.036 1.357-4.936 1.111-8.7-.679-2.344-1.172-3.886-3.394-4.565-6.725a25.991 25.991 0 0 1-.37-7.157c.494-2.406 1.234-3.949 2.221-4.566.679-.679 1.913-.864 3.7-.494z" class="cls-74" data-name="Path 5826"/>
                        <path id="Path_5827" d="M12.093 9.81c-1.111-1.049-2.345-.74-3.764.74a2.829 2.829 0 0 1-1.6 2.715 11.837 11.837 0 0 1-5.676 1.111C-4.813 13.759-8.7 10.921-10.674 5.8a28.632 28.632 0 0 1-.74-2.9v-.124a29.043 29.043 0 0 1-.617-5.8 18.686 18.686 0 0 1 .123-1.913 12.845 12.845 0 0 1 4.257-8.083c4.072-1.974 7.342-1.728 9.81.8a12.922 12.922 0 0 1 2.654 4.384l.247.555" class="cls-66" data-name="Path 5827"/>
                        <path id="Path_5828" d="M1.357-6.787a12.889 12.889 0 0 1 1.851 2.468 5.345 5.345 0 0 1 .432 2.838m-12.9-3.208c.499-2.411 1.239-3.949 2.226-4.566.679-.679 1.913-.864 3.7-.494.062 0 .185.062.247.062A9.265 9.265 0 0 1-.74-8.515 13.156 13.156 0 0 1 1.3-6.787c-3.768 3.64-4.94 6.355-3.459 8.206a8.94 8.94 0 0 0 4.5 3.27C-1.481 5.8-4.134 4.5-5.8.679c-1.728-3.949-.8-7.4 2.715-10.366m-6.17 5c0 .123-.062.185-.062.247l.062-.432zm11.6 9.378c.123.062.309.062.37.123 2.16 1.419 3.023 2.715 2.591 3.949l-.062.062a4.527 4.527 0 0 1-.864 1.111c-2.036 1.357-4.936 1.111-8.7-.679-2.344-1.174-3.886-3.396-4.565-6.727a25.991 25.991 0 0 1-.37-7.157" class="cls-67" data-name="Path 5828"/>
                    </g>
                </g>
                <g id="Group_3424" class="cls-77" data-name="Group 3424" transform="translate(-2.36 -5.333)">
                    <g id="Layer_3_47_">
                        <path id="Path_5829" d="M.185 11.47a9.549 9.549 0 0 1-.062 1.3 1.79 1.79 0 0 1-.987 1.3c-.617.37-.987.555-1.11.617-.123 0-.308-.123-.493-.432a1.552 1.552 0 0 1 0-1.3 13.706 13.706 0 0 1 .678-1.357 1.416 1.416 0 0 1 1.11-.617.9.9 0 0 1 .617.062.466.466 0 0 1 .247.427zm2.1 0a.338.338 0 0 1 .247-.37 1.388 1.388 0 0 1 .74-.062 1.672 1.672 0 0 1 1.357.617 6.636 6.636 0 0 1 .863 1.3 1.113 1.113 0 0 1 .062 1.3c-.247.247-.432.432-.555.432h-.065a6.174 6.174 0 0 1-1.357-.617c-.74-.37-1.172-.8-1.233-1.3a9.549 9.549 0 0 1-.062-1.3z" class="cls-64" data-name="Path 5829"/>
                        <path id="Path_5830" d="M-1.912 16.959c-3.083-.247-3.947-1.727-2.652-4.5l.185-.37a18.053 18.053 0 0 1 1.172-1.6.133.133 0 0 1 .123-.123A7.708 7.708 0 0 1 .925 7.524l.247-.062c1.665-.185 3.33.74 5 2.713l.062.062c.185.185.37.432.555.617.062.123.185.185.247.308q3.33 3.885-1.11 5c-.123 0-.185.062-.308.062zm2.1-5.489A.373.373 0 0 0 0 11.1a.9.9 0 0 0-.617-.062 1.452 1.452 0 0 0-1.11.617 4.624 4.624 0 0 0-.678 1.357 1.206 1.206 0 0 0 0 1.3c.185.308.308.432.493.432A5.6 5.6 0 0 0-.8 14.122a1.79 1.79 0 0 0 .987-1.3 9.915 9.915 0 0 1-.002-1.352zm2.1 0a4.838 4.838 0 0 0 .123 1.3c.062.493.432.925 1.233 1.3.74.37 1.233.555 1.357.617h.062c.123 0 .308-.185.555-.432a1.431 1.431 0 0 0-.123-1.3 10.6 10.6 0 0 0-.863-1.357 1.876 1.876 0 0 0-1.357-.617 1.239 1.239 0 0 0-.74.062c-.13.057-.315.242-.253.427z" class="cls-6" data-name="Path 5830"/>
                        <path id="Path_5831" d="M1.172 7.462c1.665-.185 3.33.74 5 2.713l.062.062c.185.185.37.432.555.617.062.123.185.185.247.308q3.33 3.885-1.11 5c-.123 0-.185.062-.308.062m-7.524.74c-3.083-.247-3.947-1.727-2.652-4.5l.185-.37a18.053 18.053 0 0 1 1.172-1.6.133.133 0 0 1 .123-.123A7.708 7.708 0 0 1 .925 7.524M-8.51-16.959c6.6 5.674 9.744 13.691 9.5 24.051" class="cls-78" data-name="Path 5831"/>
                    </g>
                </g>
                <g id="Group_3425" class="cls-79" data-name="Group 3425" transform="translate(-.367 13.935)">
                    <path id="Path_5832" d="M24.157-4.992a8.285 8.285 0 0 1 3.882.247 2 2 0 0 1 1.294 2.034m-52.443-.863A11.148 11.148 0 0 0-27.424-1.6q28.1 14.79 55.4-3.081m-55.4 3.02A7.513 7.513 0 0 0-29.334.37" class="cls-80" data-name="Path 5832"/>
                </g>
                <g id="Group_3426" class="cls-81" data-name="Group 3426" transform="translate(1.098 28.481)">
                    <path id="Path_5833" d="M-7.645.925a16 16 0 0 0 6.6 1.788H-.8A18.6 18.6 0 0 0 7.584.8M-.432-2.775L-.74.247" class="cls-82" data-name="Path 5833"/>
                </g>
                <g id="Group_3427" class="cls-83" data-name="Group 3427" transform="translate(-.83 50.396)">
                    <g id="Layer_3_48_">
                        <path id="Path_5834" d="M8.235 2.028l-.061.553-.062 1.536c-6.145 6.268-11.676 6.33-16.592.123l-.307-.061v-.246c0-1.045 0-2.212.061-3.564a35.774 35.774 0 0 0-.492-8.05 26.086 26.086 0 0 0 17.76 1.106 13.677 13.677 0 0 0-.369 3.134c0 2.4-.061 3.81-.061 4.179a5.551 5.551 0 0 0 .123 1.29zM-8.542 4.056z" class="cls-6" data-name="Path 5834"/>
                        <path id="Path_5835" d="M8.542-6.575a13.677 13.677 0 0 0-.369 3.134c0 2.4-.061 3.81-.061 4.179a3.467 3.467 0 0 0 .061 1.352c0 .061 0 .061.061.123l-.061.43-.061 1.536c-6.145 6.207-11.676 6.268-16.593.061m-.246-.184v-.123c0-1.045 0-2.212.061-3.564a35.774 35.774 0 0 0-.492-8.05 8.984 8.984 0 0 0-.307-1.229M8.542-6.575a3.737 3.737 0 0 1 .922-1.782M8.235 2.028l-.061.553M-8.542 4.056h-.184" class="cls-84" data-name="Path 5835"/>
                    </g>
                </g>
                <g id="Group_3428" class="cls-85" data-name="Group 3428" transform="translate(-3.22 -38.824)">
                    <path id="Path_5836" d="M20.908-4.009a9.31 9.31 0 0 1 3.145-.491 5.651 5.651 0 0 1 3.207.8 15.306 15.306 0 0 1 3.886 3.207c1.419 1.6.74 1.974-1.974 1.11a19.5 19.5 0 0 0-6.044-1.172 9.849 9.849 0 0 1-2.775-.062A1.186 1.186 0 0 1 19.3-2.035a2.064 2.064 0 0 1 1.608-1.974zm-46.38 2.467a12.892 12.892 0 0 1 3.084 0A2.079 2.079 0 0 1-20.476 0a1.1 1.1 0 0 1-.74 1.48 8.722 8.722 0 0 1-2.652.432 16.7 16.7 0 0 0-5.432 1.85q-3.608 1.758-2.035-.74a11.587 11.587 0 0 1 2.96-3.454 5.669 5.669 0 0 1 2.903-1.11z" class="cls-64" data-name="Path 5836"/>
                </g>
                <g id="Group_3430" class="cls-86" data-name="Group 3430" transform="translate(3.412 -43.278)">
                    <g id="Group_3429" data-name="Group 3429">
                        <path id="Path_5837" d="M-.489-2.325a.225.225 0 0 1-.061-.184c0-.122 0-.184.061-.245s.122-.122.184-.122a.132.132 0 0 1 .122.122C0-2.753 0-2.57 0-2.508s0 .122-.122.184l-.123.124s-.183 0-.244-.125zM-2.937.857a.214.214 0 0 1-.122.061.132.132 0 0 1-.122.122.225.225 0 0 1-.184-.061c-.061-.061-.061-.061-.061-.122a.225.225 0 0 1 .061-.184q.092-.184.184-.184a.214.214 0 0 1 .122.061c.061.061.122.122.122.184z" class="cls-87" data-name="Path 5837"/>
                        <path id="Path_5838" d="M-.245 2.508l.122-.061A.189.189 0 0 1 0 2.508a.189.189 0 0 1 .061.122s0 .122-.061.122c0 .061 0 .184-.122.184s-.061 0-.122-.061a.189.189 0 0 1-.061-.122z" class="cls-88" data-name="Path 5838"/>
                        <path id="Path_5839" d="M3.12 1.346c-.061.061-.122.122-.184.122a.464.464 0 0 1-.245-.122c-.061-.061-.061-.122-.061-.245a.318.318 0 0 1 .123-.244c.061-.057.123-.123.184-.123s.122.061.245.122A.318.318 0 0 1 3.3 1.1a.845.845 0 0 1-.18.246z" class="cls-89" data-name="Path 5839"/>
                    </g>
                </g>
            </g>
            <g id="XMLID_2_" class="cls-90" transform="translate(75.682 126.904)">
                <g id="Layer_3_35_">
                    <path id="Path_5840" d="M9.5-14.244c-.772 2.255-1.246 3.62-1.424 4.214v.237a29.563 29.563 0 0 0-.534 4.985 6.571 6.571 0 0 1 0 1.543A4 4 0 0 0 7.6-1.84c0 .119-.059.237-.119.237a.352.352 0 0 0-.178.534l-.356-.178a4.805 4.805 0 0 1-1.487.713V-.3L2.137 14.838H-.356l-5.46-13.77-.059-.3-2.909-.649c0-1.068 0-2.315.059-3.68a30.451 30.451 0 0 0-.772-8.9c4.69 3.44 11.04 2.846 18.997-1.783z" class="cls-6" data-name="Path 5840"/>
                    <path id="Path_5841" d="M8.072-9.852a29.563 29.563 0 0 0-.534 4.985 6.571 6.571 0 0 1 0 1.543A4 4 0 0 0 7.6-1.9l.119.415M-8.784.059c0-1.068 0-2.315.059-3.68a30.451 30.451 0 0 0-.772-8.9M9.5-14.244c-.772 2.255-1.246 3.62-1.424 4.214" class="cls-59" data-name="Path 5841"/>
                </g>
            </g>
        </g>
        <g id="Group_3432" class="cls-91" data-name="Group 3432" transform="matrix(1 .026 -.026 1 74.426 131.041)">
            <g id="Layer_3_18_">
                <path id="Path_5842" d="M6.873 13.344C5.756 10.929 4.7 8.387 3.583 5.719a3.9 3.9 0 0 0-.235-.508l-.176-.064c.176-.7.352-1.461.529-2.224C4.523-.7 5.345-5.02 6.168-10.167a8.683 8.683 0 0 0 2.643-1.525 11.34 11.34 0 0 0 1.175-1.271 1.283 1.283 0 0 1 .7-.635 1.4 1.4 0 0 0 1.645-.7c1.234 1.334 1.645 2.351 1.234 3.114a38.812 38.812 0 0 0-1.645 6.608 30.393 30.393 0 0 0-.352 6.1v.318a1.7 1.7 0 0 1-.059.508c-.701 7.245-2.228 10.93-4.636 10.994z" class="cls-36" data-name="Path 5842"/>
                <path id="Path_5843" d="M3.172 5.147l.176.064a3.9 3.9 0 0 1 .235.508c1.116 2.669 2.173 5.21 3.289 7.625A14.015 14.015 0 0 1 2 12.136c.176.508.294.953.47 1.525Q-7.842 18.808-9.868 2.986c0-.127-.059-.254-.059-.445 0-.127-.059-.191-.059-.318 0-.064-.059-.191-.059-.254a36.638 36.638 0 0 0-1.7-5.655 26.311 26.311 0 0 0-1.468-3.241.5.5 0 0 1-.117-.254 1.32 1.32 0 0 0-.235-.508 3.991 3.991 0 0 1 .881-3.94c.176.445.881.572 2.232.318a1.16 1.16 0 0 0 .352.953 2.5 2.5 0 0 0 .411.318 18.245 18.245 0 0 0 4.402 1.525c1.175 4 2.467 7.752 3.877 11.374.352.953.7 1.906 1.116 2.8a55.013 55.013 0 0 1 1.88 5.337A237.286 237.286 0 0 0 3 5.719z" class="cls-28" data-name="Path 5843"/>
                <path id="Path_5844" d="M12.335-14.3c1.234 1.334 1.645 2.351 1.234 3.114a38.812 38.812 0 0 0-1.645 6.608 30.393 30.393 0 0 0-.352 6.1v.318m-21.5.445c0-.064-.059-.191-.059-.254a36.638 36.638 0 0 0-1.7-5.655m0 0a26.311 26.311 0 0 0-1.468-3.241.5.5 0 0 1-.117-.254 1.32 1.32 0 0 0-.235-.508 3.991 3.991 0 0 1 .881-3.94m2.232.318a1.16 1.16 0 0 0 .352.953 2.5 2.5 0 0 0 .411.318 18.245 18.245 0 0 0 4.403 1.527c1.175 4 2.467 7.752 3.877 11.374.352.953.7 1.906 1.116 2.8a55.013 55.013 0 0 1 1.88 5.337c.529-2.16 1-3.94 1.351-5.337a2.1 2.1 0 0 0 .117-.508c.235-.762.411-1.525.587-2.287C4.523-.7 5.345-5.02 6.168-10.167a8.683 8.683 0 0 0 2.643-1.525 11.34 11.34 0 0 0 1.175-1.271 1.283 1.283 0 0 1 .7-.635" class="cls-92" data-name="Path 5844"/>
                <path id="Path_5845" d="M11.572 1.779a1.7 1.7 0 0 1-.059.508m-21.44.318c0-.127-.059-.191-.059-.318" class="cls-93" data-name="Path 5845"/>
            </g>
        </g>
        <g id="Group_3434" class="cls-94" data-name="Group 3434" transform="translate(71.696 167.115)">
            <g id="Group_3433" data-name="Group 3433">
                <path id="Path_5846" d="M-23.105-36.057Q-5.35.248 20.089 24.079q-28.682-22.9-43.308-59.763zm-3.358 1.857A229.865 229.865 0 0 0-12.52 28.361 156.144 156.144 0 0 1-26.634-34.2z" class="cls-48" data-name="Path 5846"/>
                <path id="Path_5847" d="M-23.219-35.684Q-8.619 1.18 20.09 24.08-5.35.248-23.105-36.057l-.114-.31a49.159 49.159 0 0 1 9.163-2.979 204.04 204.04 0 0 1 47.235 53.5l-.911 8.813-.455.372a5.284 5.284 0 0 1 2.447 2.793 7.716 7.716 0 0 1-4.325 6.889Q1.764 44.745-25.61 34.754a6.487 6.487 0 0 1-.569-.186c-4.894-2.3-6.2-5.834-3.984-10.55a63.977 63.977 0 0 0-.4-15.515c-3.13-16.88-4.268-29.292-3.528-37.236v-.31l.114-.124a32.676 32.676 0 0 1 7.114-5.461l.171.31A157.269 157.269 0 0 0-12.52 28.361 227.773 227.773 0 0 1-26.463-34.2v-.559c.967-.559 1.992-1.055 3.016-1.551zm-6.943 59.7a9.488 9.488 0 0 1-.285 1.365 9.488 9.488 0 0 0 .285-1.364zm17.642 4.344c.057.062.057.186.114.31a3.085 3.085 0 0 1-.114-.309z" class="cls-47" data-name="Path 5847"/>
                <path id="Path_5848" d="M-23.219-36.367a.419.419 0 0 0-.228.124m-3.073 1.489a1.229 1.229 0 0 0-.285.186 32.676 32.676 0 0 0-7.114 5.461l-.114.124v.31q-1.2 11.822 3.528 37.236a63.977 63.977 0 0 1 .4 15.515 9.488 9.488 0 0 1-.285 1.365m3.87-60.2c.967-.559 1.992-1.055 3.016-1.551m.285-.062a49.159 49.159 0 0 1 9.163-2.979 204.04 204.04 0 0 1 47.235 53.5l-.911 8.813-.455.372a5.284 5.284 0 0 1 2.447 2.793 7.716 7.716 0 0 1-4.325 6.889Q1.764 44.745-25.61 34.754a6.487 6.487 0 0 1-.569-.186c-4.894-2.3-6.2-5.834-3.984-10.55" class="cls-95" data-name="Path 5848"/>
                <path id="Path_5849" d="M-26.463-34.2v-.559m13.943 63.12c.057.062.057.186.114.31M-26.634-34.2A156.144 156.144 0 0 0-12.52 28.361 227.773 227.773 0 0 1-26.463-34.2m3.358-1.862Q-5.35.248 20.089 24.079q-28.682-22.9-43.308-59.763" class="cls-96" data-name="Path 5849"/>
            </g>
        </g>
        <g id="Group_3436" class="cls-97" data-name="Group 3436" transform="translate(72.987 206.839)">
            <g id="Group_3435" data-name="Group 3435">
                <path id="Path_5850" d="M27.447-4.04a5.442 5.442 0 0 1-.178 4.872C8.08 5.228-10.04 5.347-26.972 1.307a3.765 3.765 0 0 1 .119-4.812c.059 0 .059 0 .119.059Q-1.426 2.436 27.21-4.04z" class="cls-64" data-name="Path 5850"/>
                <path id="Path_5851" d="M27.21-4.04q-28.606 6.505-54 .535c-.059 0-.059-.059-.119-.059a3.841 3.841 0 0 0-.119 4.812Q-1.545 7.307 27.15.772a5.442 5.442 0 0 0 .179-4.872" class="cls-98" data-name="Path 5851"/>
            </g>
        </g>
    </g>
</svg>
